<?xml version="1.0" encoding="UTF-8"?>
<svg id="Layer_1" xmlns="http://www.w3.org/2000/svg" version="1.1" viewBox="0 0 1024 1024">
  <!-- Generator: Adobe Illustrator 29.8.1, SVG Export Plug-In . SVG Version: 2.1.1 Build 2)  -->
  <defs>
    <style>
      .st0 {
        fill: #22b24b;
      }

      .st1 {
        fill: #61bb46;
      }
    </style>
  </defs>
  <path class="st1" d="M131.18,905.54L381.18,245.26c.44-1.17,1.95-1.48,2.82-.58l188.73,196.35c.67.7,1.78.7,2.45,0L890,116.73c1.28-1.32,3.45.05,2.82,1.77l-248.21,677.8c-.43,1.17-1.92,1.5-2.8.62l-200.34-200.34c-.67-.67-1.76-.66-2.42.01l-305.06,310.74c-1.29,1.32-3.46-.07-2.81-1.8Z"/>
  <path class="st0" d="M375.35,531.43l-242.87,375.27c-.51.78.55,1.63,1.2.96l306.58-312.29-64.91-63.94Z"/>
  <path class="st0" d="M638.85,499.46l252.62-382.27c.47-.71-.49-1.48-1.08-.87l-316.45,325.98,64.91,57.16Z"/>
</svg>