<?xml version="1.0" encoding="UTF-8"?>
<svg id="Layer_1" xmlns="http://www.w3.org/2000/svg" version="1.1" viewBox="0 0 1024 1024">
  <!-- Generator: Adobe Illustrator 29.8.1, SVG Export Plug-In . SVG Version: 2.1.1 Build 2)  -->
  <defs>
    <style>
      .st0 {
        fill: #231f20;
      }

      .st1 {
        fill: #363436;
      }
    </style>
  </defs>
  <path class="st0" d="M105.17,902.42L361.91,224.33c.46-1.2,2.01-1.52,2.9-.59l193.82,201.65c.69.71,1.83.72,2.52,0L884.45,92.33c1.32-1.35,3.55.05,2.9,1.82l-254.9,696.08c-.44,1.2-1.98,1.54-2.88.64l-205.74-205.74c-.69-.69-1.8-.68-2.49.01L108.06,904.26c-1.33,1.35-3.56-.07-2.88-1.85Z"/>
  <path class="st1" d="M355.92,518.22l-249.42,385.38c-.52.81.56,1.67,1.24.99l314.85-320.71-66.66-65.66Z"/>
  <path class="st1" d="M626.53,485.39L885.97,92.81c.48-.72-.5-1.51-1.11-.89l-324.98,334.77,66.66,58.7Z"/>
</svg>