<?xml version="1.0" encoding="UTF-8"?>
<svg id="Layer_1" xmlns="http://www.w3.org/2000/svg" version="1.1" viewBox="0 0 922.35 390.6">
  <!-- Generator: Adobe Illustrator 29.8.1, SVG Export Plug-In . SVG Version: 2.1.1 Build 2)  -->
  <defs>
    <style>
      .st0 {
        fill: #0176b8;
      }

      .st1 {
        fill: #231f20;
      }

      .st2 {
        fill: #004e78;
      }
    </style>
  </defs>
  <path class="st0" d="M.07,389.43L123.39,63.72c.22-.58.97-.73,1.39-.29l93.1,96.86c.33.34.88.34,1.21,0L374.39.31c.63-.65,1.7.02,1.39.88l-122.44,334.36c-.21.58-.95.74-1.38.31l-98.83-98.83c-.33-.33-.87-.33-1.19,0L1.45,390.31c-.64.65-1.71-.04-1.39-.88h0Z"/>
  <path class="st2" d="M120.51,204.88L.7,390c-.25.39.27.8.59.48l151.23-154.06-32.02-31.54Z"/>
  <path class="st2" d="M250.5,189.11L375.12.54c.23-.35-.24-.73-.53-.43l-156.1,160.8,32.02,28.19h0Z"/>
  <g>
    <path class="st1" d="M309.78,271.23v-3.15c0-40.84,26.18-67.02,64.92-67.02s63.08,27.22,63.08,67.02v11.25h-94.51c.78,17.8,14.66,30.11,32.99,30.11s25.91-9.43,30.37-19.37l26.96,14.13c-7.34,13.87-22.78,34.03-58.37,34.03-39,0-65.45-26.18-65.45-67.02h0ZM404.27,254.73c-1.57-14.93-12.83-24.87-29.84-24.87s-28.53,9.94-30.89,24.87h60.73Z"/>
    <path class="st1" d="M421.35,334.58l47.12-65.45-46.59-64.39h38.22l29.58,43.19h4.71l29.58-43.19h38.22l-46.59,64.39,47.12,65.45h-38.74l-29.58-43.71h-4.71l-29.58,43.71h-38.74Z"/>
    <path class="st1" d="M590.14,318.87h-4.71v15.71h-32.46v-183.24h32.99v68.33h4.71c5.5-9.16,16.75-18.59,40.31-18.59,31.41,0,58.64,24.09,58.64,66.49v4.19c0,42.4-27.49,66.49-58.64,66.49-23.56,0-34.81-9.43-40.84-19.37ZM656.62,270.97v-2.62c0-25.13-15.18-38.49-35.59-38.49s-35.59,13.35-35.59,38.49v2.62c0,25.13,15.44,38.49,35.59,38.49s35.59-13.35,35.59-38.49Z"/>
    <path class="st1" d="M666.24,271.99v-4.19c0-41.89,29.31-66.49,68.06-66.49s68.06,24.61,68.06,66.49v4.19c0,41.88-29.31,66.49-68.06,66.49s-68.06-24.61-68.06-66.49ZM769.38,271.19v-2.62c0-24.34-14.66-37.96-35.08-37.96s-35.08,13.62-35.08,37.96v2.62c0,24.34,14.93,37.96,35.08,37.96s35.08-13.62,35.08-37.96Z"/>
    <path class="st1" d="M808.76,333.92v-183.24h32.99v183.24h-32.99Z"/>
    <path class="st1" d="M882.57,338.24c-17.28,0-28.8-11.52-28.8-29.31v-73.3h-32.46v-27.22h32.46v-40.31h32.99v40.31h35.59v27.22h-35.59v67.54c0,5.24,2.62,7.85,7.34,7.85h25.13v27.22h-36.65,0Z"/>
  </g>
</svg>