<?xml version="1.0" encoding="UTF-8"?>
<svg id="Layer_1" xmlns="http://www.w3.org/2000/svg" version="1.1" viewBox="0 0 1024 1024">
  <!-- Generator: Adobe Illustrator 29.8.1, SVG Export Plug-In . SVG Version: 2.1.1 Build 2)  -->
  <defs>
    <style>
      .st0 {
        fill: #22b24b;
      }

      .st1 {
        fill: #fff;
      }

      .st2 {
        fill: #61bb46;
      }
    </style>
  </defs>
  <path class="st2" d="M99.62,774.92l167.02-441.13c.3-.78,1.31-.99,1.89-.39l126.09,131.18c.45.46,1.19.47,1.64,0l210.34-216.67c.86-.88,2.31.03,1.89,1.18l-165.83,452.84c-.29.78-1.29,1-1.87.41l-133.85-133.85c-.45-.45-1.17-.44-1.62,0l-203.81,207.61c-.86.88-2.31-.05-1.88-1.2Z"/>
  <path class="st0" d="M262.75,524.98l-162.26,250.71c-.34.52.37,1.09.8.64l204.82-208.64-43.36-42.72Z"/>
  <path class="st0" d="M438.79,503.62l168.78-255.39c.31-.47-.33-.99-.72-.58l-211.42,217.79,43.36,38.19Z"/>
  <g>
    <path class="st1" d="M475.43,655.3v-2.3c0-29.93,19.19-49.12,47.59-49.12s46.24,19.96,46.24,49.12v8.25h-69.27c.58,13.05,10.75,22.07,24.18,22.07s19-6.91,22.26-14.2l19.76,10.36c-5.37,10.17-16.69,24.94-42.79,24.94-28.59,0-47.97-19.19-47.97-49.12ZM544.7,643.21c-1.15-10.94-9.4-18.23-21.87-18.23s-20.92,7.29-22.64,18.23h44.52Z"/>
    <path class="st1" d="M557.21,701.74l34.54-47.97-34.15-47.2h28.01l21.68,31.66h3.45l21.68-31.66h28.01l-34.15,47.2,34.54,47.97h-28.4l-21.68-32.04h-3.45l-21.68,32.04h-28.4Z"/>
    <path class="st1" d="M680.94,690.23h-3.45v11.51h-23.79v-134.32h24.18v50.08h3.45c4.03-6.72,12.28-13.62,29.55-13.62,23.03,0,42.98,17.65,42.98,48.74v3.07c0,31.08-20.15,48.74-42.98,48.74-17.27,0-25.52-6.91-29.93-14.2ZM729.68,655.11v-1.92c0-18.42-11.13-28.21-26.1-28.21s-26.1,9.79-26.1,28.21v1.92c0,18.42,11.32,28.21,26.1,28.21s26.1-9.79,26.1-28.21Z"/>
    <path class="st1" d="M736.73,655.85v-3.07c0-30.7,21.49-48.74,49.89-48.74s49.89,18.04,49.89,48.74v3.07c0,30.7-21.49,48.74-49.89,48.74s-49.89-18.04-49.89-48.74ZM812.33,655.28v-1.92c0-17.85-10.75-27.82-25.71-27.82s-25.71,9.98-25.71,27.82v1.92c0,17.85,10.94,27.82,25.71,27.82s25.71-9.98,25.71-27.82Z"/>
    <path class="st1" d="M841.19,701.26v-134.32h24.18v134.32h-24.18Z"/>
    <path class="st1" d="M895.29,704.43c-12.66,0-21.11-8.44-21.11-21.49v-53.73h-23.79v-19.96h23.79v-29.55h24.18v29.55h26.1v19.96h-26.1v49.51c0,3.84,1.92,5.76,5.37,5.76h18.42v19.96h-26.86Z"/>
  </g>
</svg>