<?xml version="1.0" encoding="UTF-8"?>
<svg id="Layer_1" xmlns="http://www.w3.org/2000/svg" version="1.1" viewBox="0 0 1024 1024">
  <!-- Generator: Adobe Illustrator 29.8.1, SVG Export Plug-In . SVG Version: 2.1.1 Build 2)  -->
  <defs>
    <style>
      .st0 {
        fill: #004e78;
      }

      .st1 {
        fill: #231f20;
      }

      .st2 {
        fill: #0176b8;
      }
    </style>
  </defs>
  <path class="st2" d="M94.92,777.53l168.67-445.5c.3-.79,1.32-1,1.9-.39l127.34,132.48c.45.47,1.2.47,1.65,0l212.42-218.82c.86-.89,2.33.03,1.9,1.2l-167.47,457.32c-.29.79-1.3,1.01-1.89.42l-135.17-135.17c-.45-.45-1.19-.45-1.63,0l-205.83,209.66c-.87.89-2.34-.05-1.9-1.21Z"/>
  <path class="st0" d="M259.66,525.11l-163.87,253.2c-.34.53.37,1.1.81.65l206.85-210.71-43.79-43.14Z"/>
  <path class="st0" d="M437.45,503.54l170.45-257.92c.31-.48-.33-1-.73-.59l-213.51,219.94,43.79,38.56Z"/>
  <g>
    <path class="st1" d="M475.69,656.07v-2.33c0-30.23,19.38-49.61,48.06-49.61s46.7,20.15,46.7,49.61v8.33h-69.96c.58,13.18,10.85,22.29,24.42,22.29s19.18-6.98,22.48-14.34l19.96,10.46c-5.43,10.27-16.86,25.19-43.21,25.19-28.87,0-48.45-19.38-48.45-49.61ZM545.64,643.86c-1.16-11.05-9.5-18.41-22.09-18.41s-21.12,7.36-22.87,18.41h44.96Z"/>
    <path class="st1" d="M558.28,702.97l34.88-48.45-34.49-47.67h28.29l21.9,31.97h3.49l21.9-31.97h28.29l-34.49,47.67,34.88,48.45h-28.68l-21.9-32.36h-3.49l-21.9,32.36h-28.68Z"/>
    <path class="st1" d="M683.23,691.34h-3.49v11.63h-24.03v-135.65h24.42v50.58h3.49c4.07-6.78,12.4-13.76,29.84-13.76,23.25,0,43.41,17.83,43.41,49.22v3.1c0,31.39-20.35,49.22-43.41,49.22-17.44,0-25.77-6.98-30.23-14.34ZM732.45,655.88v-1.94c0-18.6-11.24-28.49-26.35-28.49s-26.35,9.88-26.35,28.49v1.94c0,18.6,11.43,28.49,26.35,28.49s26.35-9.88,26.35-28.49Z"/>
    <path class="st1" d="M739.57,656.63v-3.1c0-31.01,21.7-49.22,50.38-49.22s50.38,18.22,50.38,49.22v3.1c0,31-21.7,49.22-50.38,49.22s-50.38-18.22-50.38-49.22ZM815.92,656.04v-1.94c0-18.02-10.85-28.1-25.97-28.1s-25.97,10.08-25.97,28.1v1.94c0,18.02,11.05,28.1,25.97,28.1s25.97-10.08,25.97-28.1Z"/>
    <path class="st1" d="M845.07,702.48v-135.65h24.42v135.65h-24.42Z"/>
    <path class="st1" d="M899.71,705.68c-12.79,0-21.32-8.53-21.32-21.7v-54.26h-24.03v-20.15h24.03v-29.84h24.42v29.84h26.35v20.15h-26.35v50c0,3.88,1.94,5.81,5.43,5.81h18.6v20.15h-27.13Z"/>
  </g>
</svg>