<?xml version="1.0" encoding="UTF-8"?>
<svg id="Layer_1" xmlns="http://www.w3.org/2000/svg" version="1.1" viewBox="0 0 1024 1024">
  <!-- Generator: Adobe Illustrator 29.8.1, SVG Export Plug-In . SVG Version: 2.1.1 Build 2)  -->
  <defs>
    <style>
      .st0 {
        fill: #fff;
      }

      .st1 {
        fill: #c9cacc;
      }

      .st2 {
        fill: #363436;
      }
    </style>
  </defs>
  <rect class="st2" x="-1.04" y="-7.17" width="1027.4" height="1037.62"/>
  <g>
    <path class="st0" d="M501.48,182.27l185.59,411.39c.33.73-.21,1.55-1.01,1.54l-174.06-3.39c-.62-.01-1.12.49-1.11,1.11l4.38,288.89c.02,1.18-1.58,1.54-2.08.48l-194.32-418.5c-.34-.72.19-1.55.99-1.55l181.11-.06c.61,0,1.09-.49,1.09-1.1l-2.66-278.34c-.01-1.18,1.6-1.53,2.08-.46Z"/>
    <path class="st1" d="M560.31,461.71l-59.93-279.38c-.13-.58-.99-.49-.98.11l2.68,279.73,58.24-.46Z"/>
    <path class="st1" d="M455.7,595.3l58.7,286.95c.11.53.89.44.88-.1l-4.4-290.38-55.17,3.52Z"/>
  </g>
</svg>