<?xml version="1.0" encoding="UTF-8"?>
<svg id="Layer_1" xmlns="http://www.w3.org/2000/svg" version="1.1" viewBox="0 0 924.78 390.63">
  <!-- Generator: Adobe Illustrator 29.8.1, SVG Export Plug-In . SVG Version: 2.1.1 Build 2)  -->
  <defs>
    <style>
      .st0 {
        fill: #fff;
      }

      .st1 {
        fill: #61bb46;
      }

      .st2 {
        fill: #22b24b;
      }
    </style>
  </defs>
  <path class="st1" d="M.05,389.47L123.39,63.72c.22-.58.97-.73,1.4-.29l93.11,96.87c.33.34.88.35,1.21,0L374.43.3c.64-.65,1.71.02,1.4.87l-122.46,334.4c-.21.58-.95.74-1.38.3l-98.84-98.84c-.33-.33-.86-.32-1.2,0L1.45,390.34c-.64.65-1.71-.04-1.39-.89H.06v.02Z"/>
  <path class="st2" d="M120.51,204.9L.69,390.04c-.25.38.27.8.59.47l151.25-154.07-32.02-31.55h0Z"/>
  <path class="st2" d="M250.51,189.13L375.14.54c.23-.35-.24-.73-.53-.43l-156.12,160.83,32.02,28.2h0Z"/>
  <g>
    <path class="st0" d="M306.94,273.75v-3.16c0-41.18,26.4-67.59,65.48-67.59s63.62,27.46,63.62,67.59v11.35h-95.31c.8,17.96,14.79,30.37,33.27,30.37s26.14-9.51,30.63-19.54l27.19,14.25c-7.39,13.99-22.96,34.32-58.88,34.32-39.34,0-66-26.4-66-67.59h0ZM402.25,257.11c-1.58-15.05-12.93-25.08-30.09-25.08s-28.79,10.03-31.15,25.08h61.26-.02Z"/>
    <path class="st0" d="M419.47,337.65l47.53-66-46.99-64.95h38.54l29.83,43.56h4.75l29.83-43.56h38.54l-46.99,64.95,47.53,66h-39.08l-29.83-44.09h-4.75l-29.83,44.09h-39.08,0Z"/>
    <path class="st0" d="M589.71,321.81h-4.75v15.84h-32.73v-184.82h33.27v68.91h4.75c5.55-9.25,16.9-18.74,40.66-18.74,31.69,0,59.14,24.29,59.14,67.06v4.22c0,42.76-27.73,67.06-59.14,67.06-23.76,0-35.11-9.51-41.18-19.54h-.02ZM656.78,273.48v-2.64c0-25.35-15.31-38.82-35.91-38.82s-35.91,13.47-35.91,38.82v2.64c0,25.35,15.58,38.82,35.91,38.82s35.91-13.47,35.91-38.82Z"/>
    <path class="st0" d="M666.48,274.5v-4.22c0-42.24,29.57-67.06,68.65-67.06s68.65,24.82,68.65,67.06v4.22c0,42.24-29.57,67.06-68.65,67.06s-68.65-24.82-68.65-67.06ZM770.5,273.72v-2.64c0-24.56-14.79-38.28-35.38-38.28s-35.38,13.73-35.38,38.28v2.64c0,24.56,15.05,38.28,35.38,38.28s35.38-13.73,35.38-38.28Z"/>
    <path class="st0" d="M810.21,336.99v-184.82h33.27v184.82h-33.27Z"/>
    <path class="st0" d="M884.65,341.35c-17.42,0-29.05-11.61-29.05-29.57v-73.93h-32.73v-27.46h32.73v-40.66h33.27v40.66h35.91v27.46h-35.91v68.12c0,5.28,2.64,7.93,7.39,7.93h25.35v27.46h-36.96Z"/>
  </g>
</svg>