<?xml version="1.0" encoding="UTF-8"?>
<svg id="Layer_1" xmlns="http://www.w3.org/2000/svg" version="1.1" viewBox="0 0 24 24">
  <!-- Generator: Adobe Illustrator 29.8.1, SVG Export Plug-In . SVG Version: 2.1.1 Build 2)  -->
  <defs>
    <style>
      .st0 {
        fill: #fff;
      }
    </style>
  </defs>
  <path class="st0" d="M21.47,20.83l-2.88-2.88c-.19-.19-.48-.22-.7-.08-2.18,1.31-4.9,1.31-7.08,0-.23-.13-.51-.1-.7.08l-2.88,2.88c-.19.18-.23.46-.1.69.04.07.1.14.17.19,4.21,3.06,9.91,3.06,14.11,0,.14-.1.23-.25.24-.42.01-.17-.05-.33-.17-.45ZM21.47,3.16l-2.88,2.88c-.19.19-.48.22-.7.08-3.09-1.86-7.1-1.01-9.17,1.95-.75,1.09-1.18,2.37-1.22,3.69-.04,1.32.3,2.63.98,3.76.14.22.1.51-.08.7l-2.88,2.88c-.22.22-.58.23-.8,0-.02-.02-.04-.05-.06-.07C.91,13.9,1.84,6.72,6.77,2.7c4.22-3.44,10.23-3.61,14.64-.4.14.1.22.25.23.42.01.17-.05.33-.17.45ZM14.35,15.42c1.89,0,3.43-1.53,3.43-3.43,0-1.89-1.53-3.43-3.43-3.43h0c-1.89,0-3.43,1.53-3.43,3.43,0,1.89,1.53,3.43,3.43,3.43Z"/>
</svg>