<?xml version="1.0" encoding="UTF-8"?>
<svg id="Layer_1" xmlns="http://www.w3.org/2000/svg" version="1.1" viewBox="0 0 480 480">
  <!-- Generator: Adobe Illustrator 29.8.1, SVG Export Plug-In . SVG Version: 2.1.1 Build 2)  -->
  <defs>
    <style>
      .st0 {
        fill: #fff;
      }
    </style>
  </defs>
  <path class="st0" d="M474.96,100.74c-5.08-2.49-7.27,2.26-10.25,4.67-1.02.78-1.88,1.79-2.74,2.72-7.43,7.94-16.11,13.15-27.46,12.53-16.58-.93-30.74,4.28-43.26,16.96-2.66-15.64-11.5-24.98-24.95-30.97-7.04-3.11-14.16-6.23-19.09-13-3.44-4.82-4.38-10.19-6.1-15.48-1.1-3.19-2.19-6.46-5.87-7-3.99-.62-5.55,2.72-7.12,5.53-6.26,11.44-8.68,24.05-8.45,36.81.55,28.71,12.67,51.59,36.76,67.85,2.74,1.87,3.44,3.73,2.58,6.46-1.64,5.6-3.6,11.05-5.32,16.65-1.1,3.58-2.74,4.36-6.57,2.8-13.22-5.52-24.64-13.69-34.73-23.58-17.13-16.57-32.62-34.86-51.94-49.18-4.54-3.35-9.07-6.46-13.77-9.42-19.71-19.14,2.58-34.86,7.74-36.73,5.4-1.95,1.88-8.64-15.57-8.56-17.44.08-33.4,5.91-53.74,13.69-2.97,1.17-6.1,2.02-9.31,2.72-18.46-3.5-37.63-4.28-57.65-2.02-37.7,4.2-67.82,22.02-89.96,52.45C1.59,183.21-4.66,224.76,3,268.11c8.06,45.68,31.37,83.49,67.19,113.06,37.16,30.66,79.94,45.68,128.76,42.8,29.65-1.71,62.66-5.68,99.89-37.19,9.39,4.67,19.24,6.54,35.59,7.94,12.59,1.17,24.72-.62,34.11-2.57,14.71-3.11,13.69-16.73,8.37-19.22-36.91-12.93-42.2-18.52-42.2-18.52,21.9-25.91,54.91-52.84,67.82-140.07,1.02-6.92.16-11.28,0-16.89-.08-3.42.7-4.75,4.62-5.14,10.79-1.25,21.28-4.2,30.9-9.49,27.93-15.25,39.19-40.31,41.85-70.34.38-4.58-.09-9.33-4.94-11.74ZM231.61,371.07c-41.77-32.84-62.03-43.65-70.4-43.19-7.82.47-6.41,9.42-4.69,15.25,1.8,5.76,4.15,9.73,7.43,14.78,2.27,3.35,3.83,8.33-2.27,12.06-13.45,8.33-36.84-2.8-37.94-3.35-27.22-16.03-49.98-37.2-66.02-66.14-15.49-27.86-24.48-57.74-25.97-89.64-.39-7.7,1.88-10.43,9.54-11.83,10.09-1.87,20.49-2.26,30.59-.78,42.63,6.23,78.93,25.29,109.36,55.48,17.37,17.2,30.51,37.74,44.04,57.82,14.39,21.32,29.88,41.63,49.59,58.28,6.96,5.84,12.52,10.27,17.83,13.54-16.03,1.8-42.79,2.19-61.09-12.28h0ZM251.64,242.28c0-3.42,2.74-6.15,6.18-6.15.78,0,1.49.15,2.11.39.86.31,1.64.78,2.27,1.48,1.1,1.09,1.72,2.65,1.72,4.28,0,3.42-2.74,6.15-6.18,6.15s-6.1-2.72-6.1-6.15h0ZM313.82,274.19c-3.99,1.63-7.98,3.03-11.81,3.19-5.95.31-12.44-2.1-15.96-5.06-5.48-4.59-9.39-7.16-11.03-15.17-.7-3.42-.31-8.72.31-11.75,1.41-6.54-.16-10.74-4.77-14.55-3.76-3.11-8.53-3.97-13.77-3.97-1.96,0-3.75-.86-5.08-1.56-2.19-1.09-3.99-3.81-2.27-7.16.55-1.09,3.21-3.73,3.83-4.2,7.12-4.05,15.33-2.72,22.92.31,7.04,2.88,12.36,8.17,20.03,15.64,7.82,9.03,9.23,11.52,13.69,18.29,3.52,5.29,6.73,10.74,8.92,16.96,1.33,3.89-.39,7.08-5.01,9.03h0Z"/>
</svg>