<?xml version="1.0" encoding="UTF-8"?>
<svg id="Layer_1" xmlns="http://www.w3.org/2000/svg" version="1.1" viewBox="0 0 800 800">
  <!-- Generator: Adobe Illustrator 29.8.1, SVG Export Plug-In . SVG Version: 2.1.1 Build 2)  -->
  <defs>
    <style>
      .st0 {
        fill: #fff;
      }
    </style>
  </defs>
  <path class="st0" d="M240.83,199.2h93.78v262.85c0,118.45-56.77,159.8-147.48,159.8-22.2,0-50.6-3.7-69.1-9.88l10.5-75.9c12.95,4.33,29.62,7.4,48.13,7.4,39.5,0,64.18-17.9,64.18-82.05V199.2h0ZM416.03,518.83c24.67,12.95,64.17,25.93,104.27,25.93,43.2,0,66.03-17.9,66.03-45.65,0-25.3-19.75-40.72-69.72-58-69.1-24.67-114.75-62.93-114.75-124.03,0-70.95,59.85-124.63,157.32-124.63,47.5,0,81.45,9.25,106.12,20.98l-20.98,75.27c-16.05-8.03-46.27-19.75-86.37-19.75s-60.48,19.13-60.48,40.1c0,26.52,22.83,38.25,77.12,59.23,73.43,27.15,107.35,65.4,107.35,124.63,0,69.72-53.05,128.95-167.2,128.95-47.5,0-94.4-12.95-117.85-25.93l19.12-77.13v.03Z"/>
</svg>