<?xml version="1.0" encoding="UTF-8"?>
<svg id="Layer_1" xmlns="http://www.w3.org/2000/svg" version="1.1" viewBox="0 0 24 24">
  <!-- Generator: Adobe Illustrator 29.8.1, SVG Export Plug-In . SVG Version: 2.1.1 Build 2)  -->
  <defs>
    <style>
      .st0 {
        fill: #fff;
      }
    </style>
  </defs>
  <path class="st0" d="M7.49,10.84l2.37-6.51c.28-.76.26-1.6-.06-2.34C9.03.18,6.94-.4,5.29.26c-1.65.66-2.58,2.17-1.78,4.04l2.82,6.56c.22.51.97.49,1.16-.03M9.17,11.93l6.53-2.78c2.17-.92,2.72-3.69,1.02-5.29l-.07-.06c-1.67-1.55-4.42-1-5.37,1.04l-2.93,6.3c-.23.5.3,1.02.82.8M9.55,12.8l6.65-2.51c2.21-.83,4.62.74,4.59,3.04v.09c-.05,2.24-2.4,3.74-4.56,2.95l-6.67-2.44c-.31-.11-.48-.45-.37-.76.06-.17.19-.31.36-.37M9.16,14.73l6.44,2.98c.75.34,1.34.95,1.67,1.7.77,1.8-.28,3.64-1.93,4.3-1.65.66-3.41.24-4.21-1.64l-2.8-6.57c-.22-.51.33-1.01.84-.77"/>
</svg>