<?xml version="1.0" encoding="UTF-8"?>
<svg id="Layer_1" xmlns="http://www.w3.org/2000/svg" version="1.1" viewBox="0 0 24 24">
  <!-- Generator: Adobe Illustrator 29.8.1, SVG Export Plug-In . SVG Version: 2.1.1 Build 2)  -->
  <defs>
    <style>
      .st0 {
        fill: #fff;
      }
    </style>
  </defs>
  <path class="st0" d="M11.27,0C6.79-.01-1.82,10.25,1.4,12.96l.79.67c-.21.57-.29,1.19-.22,1.79.08.84.52,1.64,1.22,2.27.67.59,1.54.96,2.39.96,1.41,3.24,4.62,5.23,8.39,5.34,4.04.12,7.43-1.78,8.85-5.18.09-.24.49-1.32.49-2.27s-.54-1.35-.89-1.35c-.01-.04-.08-.29-.17-.59-.09-.3-.19-.51-.19-.51.38-.56.38-1.06.33-1.35-.05-.35-.2-.65-.5-.96s-.9-.63-1.75-.87l-.45-.12s-.02-1.05-.04-1.5c-.01-.32-.04-.82-.2-1.32-.19-.67-.51-1.25-.91-1.63,1.11-1.15,1.81-2.42,1.8-3.51,0-2.1-2.58-2.73-5.75-1.42l-.67.28c-.41-.4-.82-.81-1.23-1.21-.4-.35-.88-.5-1.43-.5ZM11.34.87c.17,0,.32.02.47.06.3.08,1.28,1.22,1.28,1.22,0,0-1.83,1.01-3.52,2.43-2.28,1.76-4.01,4.31-5.04,7.08-.81.16-1.53.62-1.96,1.25-.26-.22-.75-.64-.83-.8-.7-1.33.76-3.9,1.78-5.36C5.83,3.44,9.37.87,11.34.87ZM14.63,4.15s.06.05.03.07c-.14.11-.3.26-.41.41-.01.02,0,.04,0,.06,0,0,.01,0,.02,0,.66,0,1.59.24,2.19.57.04.02.01.1-.03.09-.91-.21-2.41-.37-3.97.01-1.39.34-2.45.86-3.22,1.43-.04.03-.09-.02-.06-.06.9-1.03,2-1.93,2.99-2.44.03-.02.07.02.05.05-.08.14-.23.45-.28.68,0,.03.03.06.06.04.61-.42,1.68-.87,2.62-.93ZM17.65,7.35h.06c.16,0,.32.06.46.15.53.36.61,1.22.64,1.84.01.36.06,1.23.07,1.48.03.57.18.65.49.75.17.06.33.1.56.16.71.2,1.12.4,1.39.66.16.16.23.33.25.5.08.61-.47,1.36-1.94,2.04-1.61.75-3.56.94-4.9.78l-.47-.05c-1.08-.15-1.69,1.25-1.05,2.2.42.61,1.55,1.01,2.69,1.01,2.6,0,4.6-1.11,5.35-2.07.02-.03.04-.06.06-.08.04-.06,0-.08-.04-.05-.61.42-3.31,2.07-6.2,1.57,0,0-.35-.06-.67-.18-.26-.1-.79-.34-.85-.89,2.33.72,3.8.04,3.8.04.03-.01.04-.04.04-.07,0-.04-.04-.06-.07-.06,0,0,0,0,0,0,0,0-1.91.28-3.72-.38.2-.64.72-.41,1.51-.34,1.23.07,2.46-.06,3.65-.39.82-.23,1.89-.7,2.73-1.36.28.62.38,1.3.38,1.3,0,0,.22-.04.4.07.17.11.3.33.21.9-.18,1.06-.63,1.93-1.39,2.72-.47.51-1.04.93-1.67,1.24-.34.18-.7.33-1.09.46-2.86.93-5.79-.09-6.74-2.3-.08-.17-.14-.34-.19-.52-.4-1.45-.06-3.2,1.01-4.3.06-.07.13-.15.13-.26,0-.09-.06-.18-.1-.24-.37-.54-1.67-1.47-1.41-3.25.19-1.28,1.31-2.19,2.36-2.14.09,0,.18.01.27.02.45.03.85.09,1.22.1.62.03,1.19-.06,1.85-.62.23-.19.41-.35.71-.4.03,0,.09-.03.22-.03ZM17.67,9.53s-.04,0-.06,0c-.33.05-.35.47-.23,1.04.07.32.19.6.32.77.17-.02.34-.02.5,0,.09-.2.1-.56.02-.94-.11-.53-.26-.87-.55-.87ZM14.01,11.08c-.36,0-.72.11-1.02.33-.16.12-.31.28-.29.38,0,.03.03.06.09.06.13.02.59-.22,1.12-.25.37-.02.68.09.92.2.24.1.39.17.44.11.04-.04.03-.11-.03-.2-.12-.19-.36-.39-.62-.5-.2-.08-.41-.13-.62-.13ZM18.09,11.89c-.17,0-.31.19-.32.42,0,.24.13.43.3.43.17,0,.31-.19.32-.42,0-.24-.13-.43-.3-.43ZM14.51,12.06c-.05,0-.1,0-.15,0-.31.05-.48.15-.59.25-.09.08-.15.17-.15.24,0,.04.03.08.07.08,0,0,0,0,0,0,.07,0,.23-.06.23-.06.32-.12.66-.16,1-.1.16.02.23.03.27-.03.01-.02.02-.05-.01-.1-.06-.1-.31-.27-.66-.27h0ZM16.77,12.46c-.13,0-.24.05-.28.15-.08.15.03.36.25.47.21.1.44.06.52-.09.08-.15-.03-.36-.25-.47-.07-.04-.15-.06-.24-.06h0ZM5.14,12.48s.1,0,.15,0c.73.04,1.81.6,2.05,2.19.22,1.41-.13,2.84-1.45,3.07-.12.02-.25.03-.37.03-1.22-.03-2.54-1.13-2.67-2.43-.14-1.44.59-2.55,1.89-2.81.12-.02.25-.04.4-.04ZM5.07,13.41c-.32,0-.63.13-.85.36-.38.42-.44.99-.37,1.19.03.07.07.09.1.1.06,0,.16-.04.22-.2,0-.02.01-.03.02-.05.04-.13.09-.25.16-.37.21-.32.64-.41.95-.2,0,0,0,0,0,0,.27.17.37.5.26.81-.06.16-.15.47-.13.72.04.51.36.72.64.74.27.01.47-.14.51-.26.03-.07,0-.11-.01-.12-.04-.05-.11-.04-.18-.02-.05.01-.11.02-.16.02-.12,0-.23-.05-.29-.15-.08-.12-.07-.3.01-.5.01-.03.03-.06.04-.09.14-.31.37-.82.11-1.32-.2-.37-.51-.6-.89-.65-.05,0-.09,0-.14-.01h0Z"/>
</svg>