<?xml version="1.0" encoding="UTF-8"?>
<svg id="Layer_1" xmlns="http://www.w3.org/2000/svg" version="1.1" viewBox="0 0 24 24">
  <!-- Generator: Adobe Illustrator 29.8.1, SVG Export Plug-In . SVG Version: 2.1.1 Build 2)  -->
  <defs>
    <style>
      .st0 {
        fill: #fff;
      }
    </style>
  </defs>
  <path class="st0" d="M22.28,9.82c.54-1.63.35-3.42-.52-4.91-1.31-2.28-3.94-3.45-6.51-2.9C13.02-.48,9.18-.68,6.69,1.55c-.79.71-1.38,1.62-1.71,2.63-1.69.35-3.14,1.4-4,2.9C-.34,9.36-.04,12.23,1.73,14.18c-.54,1.63-.36,3.42.51,4.91,1.31,2.28,3.94,3.45,6.51,2.9,1.14,1.29,2.79,2.02,4.51,2.01,2.63,0,4.97-1.7,5.77-4.21,1.69-.35,3.14-1.4,4-2.9,1.31-2.27,1.01-5.13-.75-7.07h0ZM13.26,22.43c-1.05,0-2.07-.37-2.88-1.04l.14-.08,4.78-2.76c.24-.14.39-.4.39-.68v-6.74l2.02,1.17s.03.03.04.05v5.58c0,2.48-2.01,4.49-4.49,4.49ZM3.6,18.3c-.53-.91-.72-1.98-.53-3.01l.14.09,4.78,2.76c.24.14.54.14.78,0l5.84-3.37v2.33s-.01.05-.03.06l-4.84,2.79c-2.15,1.24-4.9.5-6.14-1.65ZM2.34,7.9c.53-.92,1.37-1.62,2.37-1.97v5.68c0,.28.14.54.39.68l5.81,3.35-2.02,1.17s-.05.01-.07,0l-4.83-2.79c-2.15-1.24-2.88-3.99-1.65-6.14v.02ZM18.94,11.75l-5.83-3.39,2.02-1.16s.05-.01.07,0l4.83,2.79c2.15,1.24,2.89,3.99,1.65,6.14-.52.91-1.34,1.6-2.32,1.97v-5.68c0-.28-.16-.53-.41-.67h0ZM20.95,8.73l-.14-.09-4.77-2.78c-.24-.14-.54-.14-.79,0l-5.84,3.37v-2.33s0-.05.03-.06l4.83-2.79c2.15-1.24,4.9-.5,6.14,1.65.52.91.71,1.97.54,3.01v.02ZM8.31,12.86l-2.02-1.16s-.03-.03-.04-.06v-5.57c0-2.48,2.02-4.5,4.51-4.49,1.05,0,2.06.37,2.87,1.04l-.14.08-4.78,2.76c-.24.14-.39.4-.39.68v6.72ZM9.4,10.5l2.6-1.5,2.61,1.5v3l-2.6,1.5-2.61-1.5v-3Z"/>
</svg>