<?xml version="1.0" encoding="UTF-8"?>
<svg id="Layer_1" xmlns="http://www.w3.org/2000/svg" version="1.1" viewBox="0 0 24 24">
  <!-- Generator: Adobe Illustrator 29.8.1, SVG Export Plug-In . SVG Version: 2.1.1 Build 2)  -->
  <defs>
    <style>
      .st0 {
        fill: #fff;
        stroke: #fff;
        stroke-miterlimit: 10;
        stroke-width: .25px;
      }
    </style>
  </defs>
  <path class="st0" d="M23.56,14.72s-.03-.08-.06-.12c-.14-.26-.48-.34-1.01-.23-1.65.34-2.29.13-2.53-.02,1.34-2.05,2.44-4.52,3.04-6.83.27-1.05.8-3.52.12-4.73-.04-.08-.09-.16-.15-.23C21.69.91,19.8.02,17.51,0c-1.49-.02-2.77.35-3.12.48-.17-.03-.34-.06-.52-.08-.43-.08-.87-.12-1.31-.13-1.18-.02-2.2.26-3.05.84-.86-.32-4.79-1.64-7.22.08C.94,2.15.31,3.87.43,6.3c.04.82.51,3.33,1.24,5.74.46,1.51.94,2.7,1.43,3.58.55.99,1.13,1.59,1.71,1.79.45.15,1.13.14,1.86-.73.8-.96,1.59-1.83,1.94-2.21.44.24.91.36,1.39.38h0c-.08.1-.17.2-.25.31-.34.43-.41.52-1.5.74-.31.06-1.13.23-1.15.81,0,.12.03.23.09.33.23.42.92.61,1.01.63,1.33.33,2.5.09,3.37-.68-.02,2.23.08,4.42.35,5.09.22.55.76,1.9,2.47,1.9.25,0,.53-.03.83-.09,1.78-.38,2.56-1.17,2.86-2.91.15-.87.4-2.88.54-4.1.02-.07.04-.12.06-.14,0,0,.07-.05.43.03h.04l.25.02h.01c.85.04,1.91-.14,2.53-.43.64-.3,1.81-1.03,1.6-1.67l.02.03ZM2.37,11.88c-.74-2.44-1.18-4.89-1.21-5.57-.11-2.17.42-3.68,1.56-4.49,1.84-1.3,4.84-.54,6.11-.13h0c-2.02,2.04-1.98,5.54-1.97,5.75,0,.08,0,.2.02.36.03.59.1,1.68-.07,2.92-.16,1.15.19,2.28.97,3.09.08.08.16.16.25.24-.35.37-1.1,1.19-1.9,2.16-.57.68-.96.55-1.09.51-.39-.13-.81-.59-1.24-1.32-.48-.84-.96-2.03-1.42-3.51h0ZM8.38,16.96c-.17-.04-.33-.11-.43-.18.09-.04.24-.09.48-.14,1.28-.26,1.48-.45,1.91-1,.1-.13.21-.27.37-.44.03-.04.06-.08.07-.13.17-.15.27-.11.44-.04.16.06.31.26.37.48.03.1.06.29-.05.44-.9,1.27-2.22,1.25-3.17,1.01h.01ZM10.47,12.98l-.05.14c-.13.36-.26.69-.33,1-.67,0-1.32-.29-1.81-.8-.63-.66-.91-1.57-.78-2.5.18-1.31.12-2.45.08-3.06,0-.09,0-.16-.01-.22.3-.26,1.67-1,2.64-.77.45.1.72.41.83.93.58,2.7.08,3.83-.33,4.74-.08.19-.16.36-.23.55h-.01ZM17.84,17.55c-.02.18-.04.38-.06.6l-.15.44s-.02.07-.02.11c0,.47-.05.65-.11.87-.06.23-.14.49-.18,1.06-.11,1.41-.88,2.23-2.42,2.56-1.52.33-1.78-.5-2.02-1.22-.02-.08-.05-.15-.08-.23-.22-.59-.19-1.41-.16-2.56.02-.56-.02-1.9-.33-2.65,0-.29.01-.59.02-.89,0-.04,0-.08-.02-.11,0-.07-.02-.14-.04-.21-.12-.43-.42-.79-.78-.94-.14-.06-.4-.17-.72-.09.07-.28.18-.59.31-.92l.05-.14c.06-.16.13-.33.21-.5.43-.95,1.01-2.25.38-5.18-.24-1.1-1.03-1.63-2.23-1.51-.72.07-1.38.37-1.71.53-.07.03-.13.07-.2.1.09-1.11.44-3.17,1.74-4.48.1-.1.2-.19.3-.28.05,0,.1-.03.14-.06.75-.57,1.69-.85,2.8-.83.41,0,.8.03,1.17.08,1.94.35,3.24,1.45,4.04,2.38.81.96,1.26,1.93,1.43,2.45-1.32-.13-2.22.13-2.68.78-.99,1.42.54,4.17,1.28,5.5.14.24.25.45.29.54.24.58.55.97.78,1.26.07.09.14.17.19.24-.4.12-1.12.38-1.06,1.72-.01.16-.04.45-.08.81-.05.21-.07.46-.1.77h.02ZM18.73,15.93c-.04-.83.27-.92.6-1.01.05-.01.09-.03.14-.04.04.04.09.07.13.1.57.38,1.58.42,3.01.13-.2.18-.52.4-.95.6-.41.19-1.1.33-1.75.36-.72.03-1.09-.08-1.17-.15h0ZM19.3,6.66c0,.35-.05.67-.11,1-.06.36-.11.73-.13,1.18-.01.44.04.89.09,1.33.11.89.22,1.8-.21,2.7-.07-.12-.13-.25-.19-.39-.05-.13-.17-.33-.33-.62-.62-1.1-2.06-3.69-1.32-4.74.38-.54,1.34-.57,2.18-.46h.02ZM19.52,13.67s-.06-.07-.09-.11l-.04-.04c.73-1.2.58-2.39.46-3.44-.05-.43-.1-.84-.09-1.22.01-.41.07-.75.12-1.09.06-.41.13-.84.11-1.35.01-.05.02-.12.01-.19-.05-.49-.6-1.94-1.73-3.25-.61-.71-1.49-1.5-2.69-2.04.53-.11,1.23-.2,2.02-.19,2.05.05,3.67.81,4.82,2.28.02.03.05.07.07.1.72,1.36-.28,6.28-2.99,10.54h.02ZM10.71,7.55c-.02.18-.31.42-.62.42h-.08c-.19-.03-.38-.14-.51-.32-.05-.06-.12-.18-.11-.28,0-.04.03-.1.09-.15.12-.09.35-.12.61-.09.32.04.64.19.61.42h.01ZM18.64,7.14c.01.08-.05.2-.15.31-.07.07-.21.2-.41.22h-.08c-.29,0-.54-.23-.56-.37-.02-.18.26-.31.56-.35s.61,0,.64.19Z"/>
</svg>