<?xml version="1.0" encoding="UTF-8"?>
<svg id="Layer_1" xmlns="http://www.w3.org/2000/svg" version="1.1" viewBox="0 0 24 24">
  <!-- Generator: Adobe Illustrator 29.8.1, SVG Export Plug-In . SVG Version: 2.1.1 Build 2)  -->
  <defs>
    <style>
      .st0 {
        fill: #fff;
      }
    </style>
  </defs>
  <path class="st0" d="M21.81,18.28L13.55.76c-.21-.44-.64-.73-1.13-.75-.5-.03-.95.21-1.21.63L2.27,15.13c-.28.45-.27,1.01.02,1.46l4.38,6.78c.26.4.71.64,1.18.64.13,0,.27-.02.4-.06l12.7-3.76c.39-.12.71-.39.87-.76s.16-.78,0-1.15ZM19.96,19.04l-10.78,3.19c-.33.1-.64-.19-.58-.52L12.46,3.27c.07-.34.55-.4.7-.08l7.13,15.14c.13.29-.02.62-.33.71Z"/>
</svg>