<?xml version="1.0" encoding="UTF-8"?>
<svg id="Layer_1" xmlns="http://www.w3.org/2000/svg" version="1.1" viewBox="0 0 24 24">
  <!-- Generator: Adobe Illustrator 29.8.1, SVG Export Plug-In . SVG Version: 2.1.1 Build 2)  -->
  <defs>
    <style>
      .st0 {
        fill: #fff;
      }
    </style>
  </defs>
  <path class="st0" d="M14.23,12c0,1.23-1,2.24-2.23,2.24-1.23,0-2.24-1-2.24-2.24h0c0-1.23,1-2.24,2.23-2.24,1.23,0,2.24,1,2.24,2.24h0ZM16.88,1.31c-1.35,0-3.11.96-4.89,2.62-1.78-1.65-3.54-2.6-4.89-2.6-.41,0-.78.09-1.11.28-1.38.79-1.68,3.26-.97,6.36-3.04.94-5.02,2.44-5.02,4.03s1.99,3.1,5.04,4.03c-.7,3.11-.39,5.59.99,6.38.32.19.69.27,1.1.27,1.35,0,3.11-.96,4.89-2.62,1.78,1.65,3.54,2.6,4.89,2.6.41,0,.78-.09,1.11-.27,1.37-.79,1.68-3.26.97-6.36,3.03-.93,5.01-2.44,5.01-4.02s-1.99-3.1-5.04-4.03c.7-3.11.39-5.59-.99-6.38-.32-.18-.69-.28-1.09-.28h0ZM16.87,2.4h0c.23,0,.41.05.56.13.67.38.95,1.84.73,3.7-.05.46-.14.95-.25,1.44-.96-.24-2.01-.42-3.11-.53-.66-.9-1.35-1.73-2.03-2.45,1.59-1.48,3.09-2.29,4.1-2.3h0ZM7.1,2.42c1.01,0,2.51.81,4.11,2.28-.69.72-1.37,1.54-2.02,2.44-1.11.12-2.15.3-3.11.54-.11-.49-.2-.96-.25-1.42-.23-1.87.05-3.32.71-3.71.19-.09.4-.13.56-.13h0ZM11.99,5.47c.45.47.91.99,1.36,1.56-.44-.02-.89-.03-1.35-.03s-.91.01-1.36.03c.44-.57.89-1.1,1.35-1.57h0ZM12,8.1c.74,0,1.48.03,2.2.09.41.58.8,1.2,1.18,1.86.37.64.71,1.29,1.02,1.95-.31.65-.65,1.31-1.01,1.95-.38.66-.77,1.29-1.18,1.87-.73.06-1.47.1-2.21.1s-1.48-.03-2.2-.09c-.41-.58-.8-1.2-1.18-1.86-.37-.64-.71-1.29-1.02-1.95.3-.66.65-1.31,1.01-1.95.38-.66.77-1.29,1.18-1.87.73-.06,1.47-.1,2.21-.1h0ZM8.36,8.35c-.24.38-.48.76-.7,1.16-.22.39-.43.78-.63,1.17-.26-.66-.49-1.31-.68-1.95.64-.15,1.32-.28,2.01-.39h0ZM15.62,8.35c.69.1,1.36.23,2.01.39-.18.63-.41,1.28-.66,1.93-.2-.39-.41-.78-.64-1.17-.23-.39-.47-.77-.7-1.15h0ZM18.69,9.03c.48.15.94.32,1.38.5,1.73.74,2.85,1.71,2.85,2.48,0,.77-1.12,1.74-2.86,2.48-.42.18-.88.34-1.35.49-.28-.96-.65-1.96-1.1-2.98.45-1.02.81-2.01,1.09-2.96h0ZM5.29,9.03c.28.96.64,1.96,1.1,2.98-.45,1.02-.81,2.01-1.09,2.96-.48-.15-.94-.32-1.37-.5-1.73-.74-2.85-1.71-2.85-2.47s1.12-1.74,2.85-2.48c.42-.18.88-.34,1.36-.49ZM16.97,13.31c.26.66.49,1.31.68,1.95-.64.16-1.32.29-2.02.39.24-.38.48-.76.71-1.16.23-.39.43-.79.64-1.18h0ZM7.03,13.33c.2.39.41.78.64,1.18.23.39.46.77.71,1.14-.7-.1-1.36-.23-2.01-.39.18-.63.41-1.28.66-1.93h0ZM17.92,16.32c.11.49.2.97.25,1.42.23,1.87-.05,3.32-.71,3.71-.15.09-.34.13-.56.13-1.01,0-2.51-.81-4.11-2.28.69-.72,1.37-1.54,2.02-2.44,1.11-.12,2.15-.3,3.11-.54h0ZM6.09,16.33c.96.23,2.01.42,3.11.53.66.91,1.35,1.73,2.03,2.45-1.6,1.48-3.09,2.3-4.11,2.3-.22,0-.41-.05-.55-.13-.67-.38-.95-1.83-.73-3.7.05-.46.14-.94.25-1.44h0ZM10.65,16.97c.44.02.89.03,1.35.03s.91-.01,1.36-.03c-.44.57-.9,1.09-1.35,1.57-.45-.47-.91-.99-1.36-1.57Z"/>
</svg>