<?xml version="1.0" encoding="UTF-8"?>
<svg id="Layer_1" xmlns="http://www.w3.org/2000/svg" version="1.1" viewBox="0 0 24 24">
  <!-- Generator: Adobe Illustrator 29.8.1, SVG Export Plug-In . SVG Version: 2.1.1 Build 2)  -->
  <defs>
    <style>
      .st0 {
        fill: #fff;
      }
    </style>
  </defs>
  <path class="st0" d="M2.3-.02v24.03h5.56v-8.44h3l4.76,8.44h6.66l-5.38-9.27c1.38-.65,2.54-1.7,3.32-3.02.71-1.21,1.06-2.57,1.06-4.09s-.35-2.77-1.06-3.92c-.71-1.17-1.69-2.08-2.95-2.75C16.03.32,14.65-.02,13.11-.02H2.3ZM7.86,4.86h4.22c.73,0,1.35.13,1.85.38.53.25.93.62,1.2,1.1.27.46.41,1,.41,1.61s-.13,1.17-.38,1.65c-.23.48-.57.86-1.03,1.13-.43.25-.95.38-1.54.38h-4.74v-6.25Z"/>
</svg>