<?xml version="1.0" encoding="UTF-8"?>
<svg id="Layer_1" xmlns="http://www.w3.org/2000/svg" version="1.1" viewBox="0 0 24 24">
  <!-- Generator: Adobe Illustrator 29.8.1, SVG Export Plug-In . SVG Version: 2.1.1 Build 2)  -->
  <defs>
    <style>
      .st0 {
        fill: #fff;
      }
    </style>
  </defs>
  <path class="st0" d="M22.22,11.78l-10.43,10.43c-.41.41-.41,1.07,0,1.48.41.41,1.07.41,1.48,0l10.43-10.43c.41-.41.41-1.07,0-1.48-.41-.41-1.07-.41-1.48,0ZM20.13.31L.31,20.13c-.41.41-.41,1.07,0,1.48.41.41,1.07.41,1.48,0L21.61,1.78c.41-.41.41-1.07,0-1.48-.41-.41-1.07-.41-1.48,0Z"/>
</svg>