<?xml version="1.0" encoding="UTF-8"?>
<svg id="Layer_1" xmlns="http://www.w3.org/2000/svg" version="1.1" viewBox="0 0 24 24">
  <!-- Generator: Adobe Illustrator 29.8.1, SVG Export Plug-In . SVG Version: 2.1.1 Build 2)  -->
  <defs>
    <style>
      .st0 {
        fill: #fff;
      }
    </style>
  </defs>
  <path class="st0" d="M13.98,9.15c-2.17-.81-3.36-1.43-3.36-2.41,0-.83.68-1.3,1.9-1.3,2.23,0,4.51.86,6.09,1.63l.89-5.49c-1.25-.6-3.8-1.57-7.34-1.57-2.5,0-4.58.65-6.06,1.87-1.54,1.28-2.35,3.12-2.35,5.35,0,4.04,2.47,5.76,6.48,7.22,2.59.92,3.44,1.57,3.44,2.58s-.84,1.55-2.35,1.55c-1.88,0-4.97-.92-6.99-2.11l-.9,5.56c1.74.98,4.95,1.99,8.28,1.99,2.64,0,4.84-.62,6.33-1.81,1.66-1.31,2.52-3.24,2.52-5.73,0-4.13-2.52-5.85-6.59-7.31h0Z"/>
</svg>