<?xml version="1.0" encoding="UTF-8"?>
<svg id="Layer_1" xmlns="http://www.w3.org/2000/svg" version="1.1" viewBox="0 0 24 24">
  <!-- Generator: Adobe Illustrator 29.8.1, SVG Export Plug-In . SVG Version: 2.1.1 Build 2)  -->
  <defs>
    <style>
      .st0 {
        fill: #fff;
      }
    </style>
  </defs>
  <path class="st0" d="M12,4.8c-3.2,0-5.2,1.6-6,4.8,1.2-1.6,2.6-2.2,4.2-1.8.91.23,1.57.89,2.29,1.62,1.18,1.19,2.54,2.58,5.51,2.58,3.2,0,5.2-1.6,6-4.8-1.2,1.6-2.6,2.2-4.2,1.8-.91-.23-1.57-.89-2.29-1.62-1.18-1.19-2.54-2.58-5.51-2.58ZM6,12C2.8,12,.8,13.6,0,16.8c1.2-1.6,2.6-2.2,4.2-1.8.91.23,1.57.89,2.29,1.62,1.18,1.19,2.54,2.58,5.51,2.58,3.2,0,5.2-1.6,6-4.8-1.2,1.6-2.6,2.2-4.2,1.8-.91-.23-1.56-.89-2.29-1.62-1.18-1.19-2.54-2.58-5.51-2.58Z"/>
</svg>