<?xml version="1.0" encoding="UTF-8"?>
<svg id="Layer_1" xmlns="http://www.w3.org/2000/svg" version="1.1" viewBox="0 0 800 800">
  <!-- Generator: Adobe Illustrator 29.8.1, SVG Export Plug-In . SVG Version: 2.1.1 Build 2)  -->
  <defs>
    <style>
      .st0 {
        fill: #fff;
      }
    </style>
  </defs>
  <path class="st0" d="M595.35,205c21.34,4.96,40.73,16.13,55.73,32.1,8.28,8.64,15.48,18.26,21.43,28.65.27,1.13-38.45,27.15-61.95,41.65-.85.57-4.25-3.1-8.07-8.77-8.7-15.04-24.52-24.54-41.87-25.17-27-1.85-44.4,12.3-44.27,35.9-.23,5.81,1.09,11.57,3.82,16.7,5.92,12.3,16.98,19.65,51.6,34.65,63.78,27.5,91.13,45.55,108.02,71.28,19.33,32.89,23.14,72.63,10.42,108.6-17.58,39.69-55.31,66.71-98.55,70.57-22.57,2.59-45.37,2.35-67.88-.7-34.48-5.66-66.25-22.21-90.65-47.22-9.21-10.39-17.02-21.94-23.2-34.38,2.6-1.93,5.34-3.67,8.2-5.2,3.95-2.27,18.95-10.87,33.1-19.08l25.6-14.85,5.38,7.8c9.03,12.96,20.53,24.01,33.85,32.5,27.4,15.03,60.93,13.34,86.67-4.37,13.43-13.1,15.54-33.95,5-49.48-6.93-10-21.08-18.23-61.25-35.65-31.51-10.62-60.21-28.22-83.95-51.5-11.31-12.89-19.66-28.09-24.48-44.55-3.55-18.75-4.08-37.94-1.55-56.85,9.66-44.58,46.16-78.37,91.35-84.57,22.47-2.74,45.23-2.08,67.5,1.95ZM386.2,242.2l.27,36.45h-116.05v329.52h-81.93v-329.47h-116v-35.77c-.31-12.27.02-24.54,1-36.77.42-.57,70.98-.85,156.55-.7l155.68.43.48,36.32Z"/>
</svg>