<?xml version="1.0" encoding="UTF-8"?>
<svg id="Layer_1" xmlns="http://www.w3.org/2000/svg" version="1.1" viewBox="0 0 24 24">
  <!-- Generator: Adobe Illustrator 29.8.1, SVG Export Plug-In . SVG Version: 2.1.1 Build 2)  -->
  <defs>
    <style>
      .st0 {
        fill: #fff;
      }
    </style>
  </defs>
  <path class="st0" d="M13.8,0c-2.61,0-5.22,1-7.21,2.99-3.98,3.98-3.98,10.44,0,14.42,1.99,1.99,5.22,1.99,7.21,0,1.99-1.99,1.99-5.22,0-7.21l-1.8,1.8c1,1,1,2.61,0,3.61-1,1-2.61,1-3.61,0-2.99-2.99-2.99-7.83,0-10.82,2.99-2.99,7.83-2.99,10.82,0l1.8-1.8c-1.99-1.99-4.6-2.99-7.21-2.99ZM12,12c-1-1-1-2.61,0-3.61,1-1,2.61-1,3.61,0,2.99,2.99,2.99,7.83,0,10.82-2.99,2.99-7.83,2.99-10.82,0l-1.8,1.8c3.98,3.98,10.44,3.98,14.42,0,3.98-3.98,3.98-10.44,0-14.42-1-1-2.3-1.49-3.61-1.49s-2.61.5-3.61,1.49c-1.99,1.99-1.99,5.22,0,7.21l1.8-1.8Z"/>
</svg>