<?xml version="1.0" encoding="UTF-8"?>
<svg id="Layer_1" xmlns="http://www.w3.org/2000/svg" version="1.1" viewBox="0 0 24 24">
  <!-- Generator: Adobe Illustrator 29.8.1, SVG Export Plug-In . SVG Version: 2.1.1 Build 2)  -->
  <defs>
    <style>
      .st0 {
        fill: #fff;
      }
    </style>
  </defs>
  <path class="st0" d="M2.58,3.58c.32-.89,1.17-1.48,2.11-1.48h14.62c.95,0,1.79.6,2.11,1.49l2.44,6.78c.31.87.06,1.83-.62,2.44l-9.61,8.52c-.84.75-2.11.76-2.96.02L.78,12.77c-.7-.61-.96-1.59-.64-2.47L2.58,3.58ZM14.62,8.47l-9.11,5.54,5.74,5.01c.46.4,1.14.4,1.59,0l5.64-5h-4.09l6.24-3.96c.49-.33.69-.95.49-1.5l-1.24-3.45c-.22-.61-.8-1.02-1.46-1.01H5.55c-.64,0-1.21.41-1.43,1.01l-1.23,3.37h11.74Z"/>
</svg>