<?xml version="1.0" encoding="UTF-8"?>
<svg id="Layer_1" xmlns="http://www.w3.org/2000/svg" version="1.1" viewBox="0 0 1600 900">
  <!-- Generator: Adobe Illustrator 29.8.1, SVG Export Plug-In . SVG Version: 2.1.1 Build 2)  -->
  <defs>
    <style>
      .st0 {
        fill: #231f20;
      }

      .st1 {
        stroke-width: 4px;
      }

      .st1, .st2, .st3 {
        fill: none;
        stroke: #231f20;
        stroke-miterlimit: 10;
      }

      .st2 {
        stroke-width: 2px;
      }

      .st4 {
        fill-rule: evenodd;
      }

      .st3 {
        stroke-width: 3px;
      }

      .st5 {
        font-family: Montserrat-Black, Montserrat;
        font-size: 45.99px;
        font-weight: 800;
      }
    </style>
  </defs>
  <circle class="st2" cx="811.03" cy="450" r="176.14"/>
  <circle class="st2" cx="811.03" cy="450" r="328.71"/>
  <text/>
  <text class="st5" transform="translate(788.57 464.81)"><tspan x="0" y="0">AI</tspan></text>
  <path class="st0" d="M857.33,184.28c2.43-7.34,1.58-15.4-2.34-22.12-5.9-10.27-17.75-15.54-29.32-13.06-10.04-11.22-27.34-12.12-38.56-2.07-3.56,3.2-6.22,7.3-7.7,11.85-7.61,1.58-14.14,6.31-18.02,13.06-5.95,10.27-4.59,23.2,3.38,31.98-2.43,7.34-1.62,15.4,2.3,22.12,5.9,10.27,17.75,15.54,29.32,13.06,5.13,5.81,12.57,9.1,20.31,9.05,11.85,0,22.39-7.66,25.99-18.96,7.61-1.58,14.14-6.31,18.02-13.06,5.9-10.22,4.55-23.11-3.38-31.84h0ZM816.7,241.08c-4.73,0-9.32-1.67-12.97-4.68l.63-.36,21.53-12.43c1.08-.63,1.76-1.8,1.76-3.06v-30.36l9.1,5.27s.14.14.18.23v25.13c0,11.17-9.05,20.22-20.22,20.22v.05ZM773.19,222.47c-2.39-4.1-3.24-8.92-2.39-13.56l.63.41,21.53,12.43c1.08.63,2.43.63,3.51,0l26.3-15.18v10.49s-.05.23-.14.27l-21.8,12.57c-9.68,5.59-22.07,2.25-27.66-7.43ZM767.52,175.63c2.39-4.14,6.17-7.3,10.67-8.87v25.58c0,1.26.63,2.43,1.76,3.06l26.17,15.09-9.1,5.27s-.23.05-.32,0l-21.75-12.57c-9.68-5.59-12.97-17.97-7.43-27.66,0,0,0,.09,0,.09ZM842.28,192.97l-26.26-15.27,9.1-5.22s.23-.05.32,0l21.75,12.57c9.68,5.59,13.02,17.97,7.43,27.66-2.34,4.1-6.04,7.21-10.45,8.87v-25.58c0-1.26-.72-2.39-1.85-3.02h-.05ZM851.34,179.37l-.63-.41-21.48-12.52c-1.08-.63-2.43-.63-3.56,0l-26.3,15.18v-10.49s0-.23.14-.27l21.75-12.57c9.68-5.59,22.07-2.25,27.66,7.43,2.34,4.1,3.2,8.87,2.43,13.56,0,0,0,.09,0,.09ZM794.4,197.97l-9.1-5.22s-.14-.14-.18-.27v-25.09c0-11.17,9.1-20.27,20.31-20.22,4.73,0,9.28,1.67,12.93,4.68l-.63.36-21.53,12.43c-1.08.63-1.76,1.8-1.76,3.06v30.27h-.05ZM799.31,187.34l11.71-6.76,11.76,6.76v13.51l-11.71,6.76-11.76-6.76s0-13.51,0-13.51Z"/>
  <path class="st0" d="M890.55,656.59c-1.56-.76-2.23.69-3.15,1.43-.31.24-.58.55-.84.84-2.28,2.44-4.95,4.04-8.44,3.85-5.09-.29-9.44,1.31-13.29,5.21-.82-4.8-3.53-7.67-7.66-9.51-2.16-.96-4.35-1.91-5.86-3.99-1.06-1.48-1.35-3.13-1.87-4.76-.34-.98-.67-1.98-1.8-2.15-1.23-.19-1.7.84-2.19,1.7-1.92,3.51-2.67,7.39-2.6,11.31.17,8.82,3.89,15.85,11.29,20.84.84.57,1.06,1.15.79,1.98-.5,1.72-1.11,3.39-1.63,5.11-.34,1.1-.84,1.34-2.02.86-4.06-1.7-7.57-4.21-10.67-7.24-5.26-5.09-10.02-10.71-15.96-15.11-1.39-1.03-2.79-1.98-4.23-2.89-6.05-5.88.79-10.71,2.38-11.28,1.66-.6.58-2.65-4.78-2.63-5.36.02-10.26,1.82-16.51,4.21-.91.36-1.87.62-2.86.84-5.67-1.08-11.56-1.31-17.71-.62-11.58,1.29-20.83,6.76-27.63,16.11-8.17,11.23-10.09,24-7.74,37.31,2.48,14.03,9.64,25.65,20.64,34.73,11.42,9.42,24.56,14.03,39.55,13.15,9.11-.53,19.25-1.74,30.69-11.42,2.88,1.43,5.91,2.01,10.93,2.44,3.87.36,7.59-.19,10.48-.79,4.52-.96,4.21-5.14,2.57-5.9-11.34-3.97-12.96-5.69-12.96-5.69,6.73-7.96,16.87-16.23,20.83-43.03.31-2.13.05-3.47,0-5.19-.02-1.05.22-1.46,1.42-1.58,3.31-.38,6.54-1.29,9.49-2.92,8.58-4.68,12.04-12.38,12.86-21.61.12-1.41-.03-2.87-1.52-3.61h0ZM815.8,739.63c-12.83-10.09-19.05-13.41-21.63-13.27-2.4.14-1.97,2.89-1.44,4.68.55,1.77,1.27,2.99,2.28,4.54.7,1.03,1.18,2.56-.7,3.7-4.13,2.56-11.32-.86-11.65-1.03-8.36-4.92-15.35-11.43-20.28-20.32-4.76-8.56-7.52-17.74-7.98-27.54-.12-2.37.58-3.2,2.93-3.63,3.1-.57,6.29-.69,9.4-.24,13.1,1.91,24.25,7.77,33.59,17.04,5.34,5.28,9.37,11.59,13.53,17.76,4.42,6.55,9.18,12.79,15.23,17.9,2.14,1.79,3.85,3.15,5.48,4.16-4.92.55-13.14.67-18.77-3.77h0ZM821.95,700.07c0-1.05.84-1.89,1.9-1.89.24,0,.46.05.65.12.26.1.5.24.7.45.34.33.53.81.53,1.31,0,1.05-.84,1.89-1.9,1.89s-1.87-.84-1.87-1.89h0ZM841.05,709.87c-1.23.5-2.45.93-3.63.98-1.83.1-3.82-.65-4.9-1.55-1.68-1.41-2.88-2.2-3.39-4.66-.22-1.05-.1-2.68.1-3.61.43-2.01-.05-3.3-1.47-4.47-1.16-.96-2.62-1.22-4.23-1.22-.6,0-1.15-.26-1.56-.48-.67-.33-1.23-1.17-.7-2.2.17-.33.99-1.15,1.18-1.29,2.19-1.24,4.71-.84,7.04.1,2.16.88,3.8,2.51,6.15,4.8,2.4,2.77,2.84,3.54,4.21,5.62,1.08,1.63,2.07,3.3,2.74,5.21.41,1.19-.12,2.17-1.54,2.77h0Z"/>
  <path d="M1030.45,449.78l20.47-11.49.34-1-.34-.55h-1l-3.42-.21-11.7-.32-10.14-.42-9.83-.53-2.48-.53-2.32-3.06.24-1.53,2.08-1.4,2.98.26,6.59.45,9.88.68,7.17.42,10.62,1.11h1.69l.24-.69-.58-.42-.45-.42-10.22-6.93-11.06-7.32-5.8-4.21-3.13-2.13-1.58-2-.68-4.37,2.85-3.13,3.82.26.97.26,3.87,2.98,8.27,6.4,10.8,7.96,1.58,1.32.63-.45.08-.32-.71-1.19-5.87-10.62-6.27-10.8-2.79-4.48-.74-2.69c-.26-1.11-.45-2.03-.45-3.16l3.24-4.4,1.79-.58,4.32.58,1.82,1.58,2.69,6.14,4.35,9.67,6.74,13.15,1.98,3.9,1.05,3.61.39,1.11h.69v-.63l.55-7.4,1.03-9.09,1-11.7.34-3.29,1.63-3.95,3.24-2.13,2.53,1.21,2.08,2.98-.29,1.92-1.24,8.03-2.42,12.59-1.58,8.43h.92l1.05-1.05,4.27-5.66,7.17-8.96,3.16-3.56,3.69-3.93,2.37-1.87h4.48l3.29,4.9-1.48,5.06-4.61,5.85-3.82,4.95-5.48,7.38-3.42,5.9.32.47.82-.08,12.38-2.63,6.69-1.21,7.98-1.37,3.61,1.69.39,1.71-1.42,3.5-8.53,2.11-10.01,2-14.91,3.53-.18.13.21.26,6.72.63,2.87.16h7.03l13.09.97,3.42,2.26,2.05,2.77-.34,2.11-5.27,2.69-7.11-1.69-16.6-3.95-5.69-1.42h-.79v.47l4.74,4.64,8.69,7.85,10.88,10.12.55,2.5-1.4,1.98-1.48-.21-9.56-7.19-3.69-3.24-8.35-7.03h-.55v.74l1.92,2.82,10.17,15.28.53,4.69-.74,1.53-2.63.92-2.9-.53-5.95-8.35-6.14-9.4-4.95-8.43-.61.34-2.92,31.48-1.37,1.61-3.16,1.21-2.63-2-1.4-3.24,1.4-6.4,1.69-8.35,1.37-6.64,1.24-8.25.74-2.74-.05-.18-.61.08-6.22,8.54-9.46,12.78-7.48,8.01-1.79.71-3.11-1.61.29-2.87,1.74-2.56,10.35-13.17,6.24-8.17,4.03-4.72-.03-.69h-.24l-27.5,17.86-4.9.63-2.11-1.98.26-3.24,1-1.05,8.27-5.69-.03.03Z"/>
  <path d="M615.01,456.17c-4.06,7.05-27.62,23.68-56.2,23.68s-52.14-16.63-56.2-23.68c-.21-.37-.33-.78-.37-1.21v-13.52c.04-.35.12-.7.25-1.04,1.75-4.41,6.35-10.8,12.28-12.52.79-2.02,1.95-4.97,3.04-7.15-.17-1.7-.26-3.41-.25-5.12,0-6.27,1.33-11.78,5.34-15.88,1.87-1.91,4.2-3.38,6.95-4.49,6.59-5.36,15.99-9.87,28.86-9.87s22.47,4.51,29.07,9.87c2.75,1.11,5.08,2.57,6.95,4.49,4.01,4.1,5.34,9.6,5.34,15.88,0,1.73-.07,3.46-.25,5.12,1.08,2.18,2.25,5.13,3.04,7.15,5.93,1.72,10.53,8.11,12.28,12.52.13.33.21.68.25,1.04v13.52c-.04.42-.16.83-.37,1.21ZM559.62,427.93h-1.62c-.5.84-1.06,1.64-1.67,2.39-3.63,4.46-9.04,7.03-16.54,7.03-8.13,0-14.09-1.69-17.83-5.93-.14-.16-.27-.32-.4-.49l-.46.49v31.04c6.76,3.67,21.28,10.27,37.71,10.27s30.95-6.6,37.71-10.27v-31.04l-.46-.49s-.16.21-.4.49c-3.74,4.24-9.7,5.93-17.83,5.93-7.5,0-12.91-2.57-16.54-7.03-.61-.76-1.17-1.56-1.67-2.39ZM570.6,443.25c2.59,0,4.71,2.13,4.71,4.71v9.43c0,2.59-2.13,4.71-4.71,4.71s-4.71-2.13-4.71-4.71v-9.43c0-2.59,2.13-4.71,4.71-4.71ZM547.03,443.25c2.59,0,4.71,2.13,4.71,4.71v9.43c0,2.59-2.13,4.71-4.71,4.71s-4.71-2.13-4.71-4.71v-9.43c0-2.59,2.13-4.71,4.71-4.71ZM562.65,414.09c.64,4.98,1.9,9.02,4.14,11.77,2.08,2.56,5.35,4.42,11.05,4.42,7.42,0,10.8-1.59,12.53-3.54,1.81-2.05,2.63-5.42,2.63-11.13,0-5.37-1.15-8.71-3.32-10.93-2.25-2.3-6.22-4.06-13.31-4.83-7.01-.76-10.33.65-11.94,2.49-1.27,1.45-2.06,3.81-2.06,7.44v.1c0,1.25.1,2.65.3,4.21ZM554.98,414.09c.2-1.56.3-2.96.3-4.21v-.09c0-3.63-.8-5.99-2.06-7.44-1.61-1.84-4.93-3.25-11.94-2.49-7.09.77-11.06,2.53-13.31,4.83-2.18,2.23-3.32,5.56-3.32,10.93,0,5.71.82,9.08,2.63,11.13,1.72,1.95,5.11,3.54,12.53,3.54,5.7,0,8.97-1.86,11.05-4.42,2.24-2.75,3.5-6.79,4.14-11.77Z"/>
  <path d="M996.71,644.08c3.23,7.36,4.84,15.23,4.84,23.6,0-8.37,1.56-16.24,4.69-23.6,3.23-7.36,7.56-13.77,13.01-19.21,5.45-5.45,11.85-9.73,19.21-12.86,7.36-3.23,15.23-4.84,23.6-4.84-8.37,0-16.24-1.56-23.6-4.69-7.17-3.09-13.68-7.5-19.21-13.01-5.51-5.53-9.92-12.05-13.01-19.21-3.13-7.36-4.69-15.23-4.69-23.6,0,8.37-1.61,16.24-4.84,23.6-3.13,7.36-7.41,13.77-12.86,19.21-5.53,5.51-12.05,9.92-19.21,13.01-7.36,3.13-15.23,4.69-23.6,4.69,8.37,0,16.24,1.61,23.6,4.84,7.36,3.13,13.77,7.41,19.21,12.86,5.45,5.45,9.73,11.85,12.86,19.21"/>
  <path d="M684.55,249.17c-5.77,0-10.46,4.67-10.46,10.44v23.35c0,4.66-3.85,8.44-8.44,8.44-2.72,0-5.44-1.37-7.06-3.67l-23.84-34.06c-1.98-2.83-5.2-4.51-8.68-4.51-5.44,0-10.33,4.62-10.33,10.33v23.48c0,4.66-3.82,8.44-8.44,8.44-2.73,0-5.45-1.37-7.06-3.67l-26.68-38.11c-.6-.86-1.95-.44-1.95.62v20.36c0,1.03.31,2.03.9,2.87l26.26,37.5c1.55,2.22,3.84,3.86,6.48,4.46,6.61,1.5,12.68-3.58,12.68-10.06v-23.47c0-4.66,3.78-8.44,8.44-8.44h.01c2.81,0,5.45,1.37,7.06,3.67l23.85,34.05c1.98,2.83,5.04,4.51,8.68,4.51,5.56,0,10.32-4.63,10.32-10.33v-23.48c0-4.66,3.78-8.44,8.44-8.44h.93c.58,0,1.06-.47,1.06-1.05h0v-22.17c0-.58-.47-1.06-1.05-1.06,0,0,0,0,0,0h-1.1Z"/>
  <path class="st3" d="M987.17,338.31l56-32.23-56-32.23-56,32.23,56,32.23Z"/>
  <path class="st1" d="M1043.17,306.08v-64.45l-56-32.23v64.45l56,32.23Z"/>
  <path class="st1" d="M987.17,209.4l-56,32.23v64.45l56-32.23v-64.45Z"/>
  <path class="st0" d="M1043.17,241.63l-56,96.68v-64.45l56-32.23Z"/>
  <path class="st0" d="M1043.17,241.63l-56,32.23-56-32.23h111.99Z"/>
  <path class="st4" d="M594.44,604.42l31.15-23.03c1.53-1.13,3.71-.69,4.44,1.06,3.83,9.25,2.12,20.37-5.51,28-7.62,7.63-18.23,9.3-27.92,5.49l-10.59,4.91c15.19,10.39,33.63,7.82,45.15-3.72,9.14-9.15,11.97-21.63,9.33-32.88l.02.03c-3.84-16.53.95-23.13,10.74-36.64.23-.32.47-.64.7-.97l-12.89,12.91v-.04l-44.64,44.9M588.01,610.01c-10.9-10.43-9.02-26.56.28-35.86,6.88-6.88,18.15-9.7,27.98-5.56l10.56-4.88c-2.2-1.62-4.6-2.93-7.14-3.91-13.08-5.35-28.1-2.33-38.08,7.68-9.89,9.9-13,25.13-7.66,38.13,3.99,9.71-2.55,16.58-9.14,23.52-2.34,2.46-4.68,4.92-6.57,7.52l29.76-26.61"/>
</svg>