<?xml version="1.0" encoding="UTF-8"?>
<svg id="Layer_1" xmlns="http://www.w3.org/2000/svg" version="1.1" viewBox="0 0 1600 900">
  <!-- Generator: Adobe Illustrator 29.8.1, SVG Export Plug-In . SVG Version: 2.1.1 Build 2)  -->
  <defs>
    <style>
      .st0 {
        font-family: Montserrat-ExtraBold, Montserrat;
        font-size: 45.99px;
        font-weight: 700;
      }

      .st0, .st1 {
        isolation: isolate;
      }

      .st2 {
        fill: #231f20;
      }

      .st3 {
        fill: none;
        stroke: #231f20;
        stroke-miterlimit: 10;
        stroke-width: 2px;
      }
    </style>
  </defs>
  <circle class="st3" cx="811.03" cy="450" r="176.14"/>
  <circle class="st3" cx="811.03" cy="450" r="328.71"/>
  <path class="st2" d="M633.79,619.36c0,6.57-5.34,11.97-11.91,11.97s-11.97-5.34-11.97-11.97h0c0-6.57,5.34-11.97,11.91-11.97s11.97,5.34,11.97,11.97h0ZM647.94,562.26c-7.21,0-16.61,5.13-26.12,13.99-9.51-8.81-18.91-13.89-26.12-13.89-2.19,0-4.16.48-5.93,1.5-7.37,4.22-8.98,17.42-5.18,33.98-16.24,5.02-26.82,13.03-26.82,21.53s10.63,16.56,26.92,21.53c-3.74,16.61-2.08,29.86,5.28,34.08,1.71,1.02,3.68,1.44,5.88,1.44,7.21,0,16.61-5.13,26.12-13.99,9.51,8.81,18.91,13.89,26.12,13.89,2.19,0,4.16-.48,5.93-1.44,7.32-4.22,8.98-17.42,5.18-33.98,16.19-4.97,26.77-13.03,26.77-21.47s-10.63-16.56-26.92-21.53c3.74-16.61,2.08-29.86-5.28-34.08-1.71-.96-3.68-1.5-5.82-1.5h0v-.06h0ZM647.89,568.08h0c1.23,0,2.19.27,2.99.69,3.58,2.03,5.07,9.83,3.9,19.77-.27,2.46-.75,5.07-1.33,7.69-5.13-1.28-10.74-2.24-16.61-2.83-3.53-4.81-7.21-9.24-10.85-13.09,8.5-7.9,16.51-12.24,21.9-12.29h0v.06h0ZM595.7,568.18c5.4,0,13.41,4.33,21.95,12.18-3.68,3.85-7.32,8.23-10.79,13.03-5.93.64-11.49,1.6-16.61,2.89-.59-2.62-1.07-5.13-1.33-7.59-1.23-9.99.27-17.73,3.79-19.82,1.02-.48,2.14-.69,2.99-.69h0ZM621.82,584.48c2.41,2.51,4.86,5.28,7.27,8.33-2.35-.11-4.76-.16-7.21-.16s-4.86.06-7.27.16c2.35-3.05,4.76-5.88,7.21-8.39h0v.06ZM621.88,598.53c3.95,0,7.9.16,11.75.48,2.19,3.1,4.28,6.41,6.3,9.94,1.98,3.42,3.79,6.89,5.45,10.42-1.66,3.47-3.47,7-5.4,10.42-2.03,3.53-4.11,6.89-6.3,9.99-3.9.32-7.85.54-11.81.54s-7.9-.16-11.75-.48c-2.19-3.1-4.28-6.41-6.3-9.94-1.98-3.42-3.79-6.89-5.45-10.42,1.6-3.53,3.47-7,5.4-10.42,2.03-3.53,4.11-6.89,6.3-9.99,3.9-.32,7.85-.54,11.81-.54h0ZM602.43,599.86c-1.28,2.03-2.56,4.06-3.74,6.2-1.18,2.08-2.3,4.16-3.37,6.25-1.39-3.53-2.62-7-3.63-10.42,3.42-.8,7.05-1.5,10.74-2.08h0v.06h0ZM641.21,599.86c3.68.54,7.27,1.23,10.74,2.08-.96,3.37-2.19,6.84-3.53,10.31-1.07-2.08-2.19-4.16-3.42-6.25s-2.51-4.11-3.74-6.15h-.06,0ZM657.61,603.5c2.56.8,5.02,1.71,7.37,2.67,9.24,3.95,15.23,9.14,15.23,13.24s-5.98,9.29-15.28,13.24c-2.24.96-4.7,1.81-7.21,2.62-1.5-5.13-3.47-10.47-5.88-15.92,2.41-5.45,4.33-10.74,5.82-15.81h0l-.06-.06h0ZM586.03,603.5c1.5,5.13,3.42,10.47,5.88,15.92-2.41,5.45-4.33,10.74-5.82,15.81-2.56-.8-5.02-1.71-7.32-2.67-9.24-3.95-15.23-9.14-15.23-13.2s5.98-9.29,15.23-13.24c2.24-.96,4.7-1.81,7.27-2.62h0ZM648.42,626.36c1.39,3.53,2.62,7,3.63,10.42-3.42.85-7.05,1.55-10.79,2.08,1.28-2.03,2.56-4.06,3.79-6.2,1.23-2.08,2.3-4.22,3.42-6.3h-.06,0ZM595.32,626.46c1.07,2.08,2.19,4.16,3.42,6.3,1.23,2.08,2.46,4.11,3.79,6.09-3.74-.54-7.27-1.23-10.74-2.08.96-3.37,2.19-6.84,3.53-10.31h0ZM653.5,642.44c.59,2.62,1.07,5.18,1.33,7.59,1.23,9.99-.27,17.73-3.79,19.82-.8.48-1.81.69-2.99.69-5.4,0-13.41-4.33-21.95-12.18,3.68-3.85,7.32-8.23,10.79-13.03,5.93-.64,11.49-1.6,16.61-2.89h0ZM590.3,642.49c5.13,1.23,10.74,2.24,16.61,2.83,3.53,4.86,7.21,9.24,10.85,13.09-8.55,7.9-16.51,12.29-21.95,12.29-1.18,0-2.19-.27-2.94-.69-3.58-2.03-5.07-9.77-3.9-19.77.27-2.46.75-5.02,1.33-7.69h0v-.06h0ZM614.66,645.91c2.35.11,4.76.16,7.21.16s4.86-.06,7.27-.16c-2.35,3.05-4.81,5.82-7.21,8.39-2.41-2.51-4.86-5.28-7.27-8.39Z"/>
  <path class="st2" d="M1050.67,285.37l-41.56,41.56c-1.63,1.63-1.63,4.26,0,5.9s4.26,1.63,5.9,0l41.56-41.56c1.63-1.63,1.63-4.26,0-5.9s-4.26-1.63-5.9,0h0ZM1042.33,239.67l-78.98,78.98c-1.63,1.63-1.63,4.26,0,5.9s4.26,1.63,5.9,0l78.98-79.01c1.63-1.63,1.63-4.26,0-5.9-1.63-1.63-4.26-1.63-5.9,0v.04h0Z"/>
  <g class="st1">
    <text class="st0" transform="translate(699.5 463.34)"><tspan x="0" y="0">Recharts</tspan></text>
  </g>
</svg>