<?xml version="1.0" encoding="UTF-8"?>
<svg id="Layer_1" xmlns="http://www.w3.org/2000/svg" version="1.1" viewBox="0 0 1600 900">
  <!-- Generator: Adobe Illustrator 29.8.1, SVG Export Plug-In . SVG Version: 2.1.1 Build 2)  -->
  <defs>
    <style>
      .st0 {
        fill-opacity: .2;
      }

      .st0, .st1, .st2 {
        fill: #231f20;
      }

      .st1 {
        stroke-width: .25px;
      }

      .st1, .st3 {
        stroke: #231f20;
        stroke-miterlimit: 10;
      }

      .st4 {
        font-family: Montserrat-ExtraBold, Montserrat;
        font-size: 45.99px;
        font-weight: 700;
      }

      .st4, .st5 {
        isolation: isolate;
      }

      .st3 {
        fill: none;
        stroke-width: 2px;
      }
    </style>
  </defs>
  <circle class="st3" cx="800" cy="453.12" r="142.49"/>
  <circle class="st3" cx="800" cy="453.12" r="265.91"/>
  <circle class="st3" cx="800" cy="453.12" r="366.21"/>
  <path class="st1" d="M775.07,245.47l-9.29-29.33h-60.12l-9.17,29.33c-5.32,16.97.12,36.26,15.04,47.32l24.29,17.87,24.25-17.91c14.76-11.06,20.39-30.27,15.04-47.32l-24.25,18.03,9.21,29.33-24.25-18.11-24.25,18.03,9.29-29.25-24.37-17.95,30.04-.2,9.29-29.17,9.29,29.13,29.96.16h0v.04h0Z"/>
  <path class="st2" d="M814.36,677.01l-8.86-8.86c-.58-.58-1.48-.68-2.16-.24-6.7,4.03-15.06,4.03-21.76,0-.71-.4-1.57-.31-2.16.24l-8.86,8.86c-.58.55-.71,1.41-.31,2.12.13.22.31.43.53.58,12.94,9.41,30.46,9.41,43.38,0,.43-.31.71-.77.74-1.29s-.15-1.01-.53-1.39l-.03-.03h.02ZM814.36,622.7l-8.86,8.86c-.58.58-1.48.68-2.16.24-9.5-5.71-21.83-3.11-28.19,6-2.31,3.35-3.63,7.29-3.75,11.35-.13,4.06.92,8.09,3.02,11.56.43.68.31,1.57-.24,2.16l-8.86,8.86c-.68.68-1.78.71-2.46,0-.06-.06-.13-.15-.18-.22-11.53-15.77-8.67-37.85,6.48-50.2,12.97-10.58,31.45-11.1,45.01-1.23.43.31.68.77.71,1.29s-.15,1.01-.53,1.39v-.05ZM792.47,660.38c5.81,0,10.54-4.7,10.54-10.54s-4.7-10.54-10.54-10.54h0c-5.81,0-10.54,4.7-10.54,10.54s4.7,10.54,10.54,10.54Z"/>
  <path class="st2" d="M1003.06,534.43c-2.3,2.89-6.96,1.31-7.02-2.39l-.81-54.1h36.37c6.59,0,10.26,7.61,6.17,12.77l-34.71,43.72h0Z"/>
  <path class="st0" d="M1003.06,534.43c-2.3,2.89-6.96,1.31-7.02-2.39l-.81-54.1h36.37c6.59,0,10.26,7.61,6.17,12.77l-34.71,43.72h0Z"/>
  <path class="st2" d="M988.27,447.38c2.3-2.89,6.96-1.31,7.02,2.39l.35,54.1h-35.92c-6.59,0-10.26-7.61-6.17-12.77l34.71-43.71h0Z"/>
  <path d="M558.8,248.86v9.82h23.49c-.72,5.51-2.55,9.55-5.36,12.38-3.43,3.43-8.79,7.19-18.13,7.19-14.46,0-25.76-11.66-25.76-26.12s11.3-26.12,25.76-26.12c7.78,0,13.5,3.08,17.69,7.03l6.91-6.91c-5.83-5.67-13.66-9.98-24.6-9.98-19.8,0-36.46,16.13-36.46,35.94s16.65,35.94,36.46,35.94c10.7,0,18.77-3.51,25.08-10.06,6.47-6.47,8.51-15.62,8.51-22.96,0-2.28-.16-4.39-.52-6.15h-33.07,0Z"/>
  <path d="M1081.72,619.71v-29.7h-9.21v-13.65h9.21v-5.88c0-15.2,6.88-22.25,21.8-22.25,1.49,0,3.55.15,5.46.38,1.43.15,2.85.39,4.25.73v12.37c-.81-.07-1.62-.12-2.43-.13-.91-.02-1.82-.03-2.73-.03-2.63,0-4.69.36-6.23,1.15-1.04.52-1.92,1.32-2.53,2.31-.96,1.56-1.39,3.7-1.39,6.52v4.82h14.59l-1.43,7.82-1.07,5.82h-12.08v30.69c22.11-2.67,39.25-21.5,39.25-44.34,0-24.66-20-44.66-44.66-44.66s-44.66,20-44.66,44.66c0,20.95,14.42,38.52,33.87,43.35h0Z"/>
  <path d="M517.43,542.8c-22.06,0-39.93,17.88-39.93,39.93,0,17.64,11.44,32.61,27.3,37.88,1.99.37,2.73-.86,2.73-1.92,0-.95-.04-3.46-.05-6.79-11.11,2.41-13.45-5.36-13.45-5.36-1.81-4.61-4.45-5.84-4.45-5.84-3.62-2.47.28-2.42.28-2.42,4.01.28,6.12,4.12,6.12,4.12,3.56,6.11,9.35,4.34,11.63,3.32.36-2.58,1.39-4.34,2.53-5.34-8.87-1-18.19-4.43-18.19-19.73,0-4.36,1.55-7.92,4.11-10.72-.45-1.01-1.8-5.07.35-10.57,0,0,3.34-1.07,10.98,4.09,3.2-.89,6.59-1.33,9.98-1.35,3.39.02,6.79.46,9.98,1.35,7.59-5.16,10.93-4.09,10.93-4.09,2.14,5.5.8,9.56.4,10.57,2.55,2.8,4.09,6.35,4.09,10.72,0,15.34-9.33,18.72-18.22,19.7,1.4,1.2,2.7,3.65,2.7,7.38,0,5.34-.05,9.64-.05,10.93,0,1.05.7,2.29,2.75,1.9,15.97-5.24,27.41-20.21,27.41-37.83,0-22.05-17.88-39.93-39.93-39.93"/>
  <g class="st5">
    <text class="st4" transform="translate(716.43 786.25)"><tspan x="0" y="0">RBAC</tspan></text>
  </g>
  <path d="M943.01,148.16c-3.27,0-8.34-3.72-13.67-3.59-7.05.09-13.5,4.08-17.12,10.41-7.31,12.69-1.88,31.43,5.24,41.74,3.5,5.02,7.62,10.67,13.09,10.49,5.25-.23,7.22-3.41,13.59-3.41s8.11,3.41,13.67,3.27c5.65-.09,9.24-5.11,12.69-10.18,3.99-5.82,5.65-11.48,5.74-11.79-.13-.05-10.99-4.21-11.12-16.77-.09-10.5,8.56-15.51,8.97-15.74-4.93-7.22-12.5-8.03-15.16-8.2-6.91-.54-12.69,3.76-15.92,3.76h0ZM954.68,137.58c2.91-3.49,4.84-8.38,4.3-13.22-4.17.18-9.19,2.78-12.19,6.28-2.69,3.1-5.02,8.07-4.39,12.82,4.62.36,9.37-2.37,12.29-5.87"/>
  <g class="st5">
    <text class="st4" transform="translate(725.09 468.88)"><tspan x="0" y="0">AUTH</tspan></text>
  </g>
</svg>