<?xml version="1.0" encoding="UTF-8"?>
<svg id="Layer_1" xmlns="http://www.w3.org/2000/svg" version="1.1" viewBox="0 0 1600 900">
  <!-- Generator: Adobe Illustrator 29.8.1, SVG Export Plug-In . SVG Version: 2.1.1 Build 2)  -->
  <defs>
    <style>
      .st0 {
        fill: #231f20;
      }

      .st1 {
        fill: none;
        stroke: #231f20;
        stroke-miterlimit: 10;
        stroke-width: 2px;
      }

      .st2 {
        font-family: Montserrat-Black, Montserrat;
        font-size: 45.99px;
        font-weight: 800;
      }
    </style>
  </defs>
  <circle class="st1" cx="811.03" cy="450" r="176.14"/>
  <circle class="st1" cx="811.03" cy="450" r="328.71"/>
  <text/>
  <path class="st0" d="M767.78,649.81c1.94-5.4,7.1-8.98,12.8-8.98h88.69c5.76,0,10.86,3.64,12.8,9.04l14.8,41.13c1.88,5.28.36,11.1-3.76,14.8l-58.3,51.69c-5.1,4.55-12.8,4.61-17.96.12l-60-52.05c-4.25-3.7-5.82-9.65-3.88-14.98l14.8-40.77ZM840.82,679.48l-55.26,33.61,34.82,30.39c2.79,2.43,6.92,2.43,9.65,0l34.21-30.33h-24.81l37.85-24.02c2.97-2,4.19-5.76,2.97-9.1l-7.52-20.93c-1.33-3.7-4.85-6.19-8.86-6.13h-78.07c-3.88,0-7.34,2.49-8.67,6.13l-7.46,20.44h71.22l-.06-.06Z"/>
  <text class="st2" transform="translate(533.57 343.69)"><tspan x="0" y="0">PDF</tspan></text>
  <text class="st2" transform="translate(1009.46 489.09)"><tspan x="0" y="0">CSV</tspan></text>
</svg>