<?xml version="1.0" encoding="UTF-8"?>
<svg id="Layer_1" xmlns="http://www.w3.org/2000/svg" version="1.1" viewBox="0 0 1600 900">
  <!-- Generator: Adobe Illustrator 29.8.1, SVG Export Plug-In . SVG Version: 2.1.1 Build 2)  -->
  <defs>
    <style>
      .st0 {
        fill-opacity: .2;
      }

      .st0, .st1, .st2 {
        fill: #231f20;
      }

      .st1 {
        fill-rule: evenodd;
      }

      .st3 {
        fill: none;
        stroke: #231f20;
        stroke-miterlimit: 10;
        stroke-width: 2px;
      }
    </style>
  </defs>
  <circle class="st3" cx="800" cy="438.39" r="146.27"/>
  <circle class="st3" cx="800" cy="438.39" r="272.96"/>
  <circle class="st3" cx="800" cy="438.39" r="375.91"/>
  <path class="st2" d="M828.24,480.64c-8.09,5.42-17.79,8.55-28.25,8.55-28.03,0-50.82-22.78-50.82-50.82s22.78-50.82,50.82-50.82,50.82,22.78,50.82,50.82c0,15.16-6.65,28.79-17.23,38.11l-45.35-58.44h-8.55v40.65h6.82v-31.93l41.71,53.9.04-.04h0ZM814.09,444.52l6.77,8.73v-35.18h-6.77v26.47h0Z"/>
  <path class="st2" d="M884.31,244.48c0,5.48-4.45,9.99-9.95,9.99s-9.99-4.45-9.99-9.99h0c0-5.48,4.45-9.99,9.95-9.99s9.99,4.45,9.99,9.99h0ZM896.13,196.82c-6.02,0-13.86,4.28-21.8,11.68-7.94-7.36-15.79-11.59-21.8-11.59-1.83,0-3.48.4-4.94,1.25-6.16,3.52-7.49,14.54-4.33,28.36-13.56,4.19-22.39,10.88-22.39,17.97s8.87,13.82,22.47,17.97c-3.12,13.86-1.74,24.93,4.42,28.45,1.42.85,3.08,1.2,4.91,1.2,6.02,0,13.86-4.28,21.8-11.68,7.94,7.36,15.79,11.59,21.8,11.59,1.83,0,3.48-.4,4.94-1.2,6.11-3.52,7.49-14.54,4.33-28.36,13.51-4.15,22.34-10.88,22.34-17.92s-8.87-13.82-22.47-17.97c3.12-13.86,1.74-24.93-4.42-28.45-1.42-.8-3.08-1.25-4.86-1.25h0v-.05h0ZM896.08,201.68h0c1.03,0,1.83.22,2.5.58,2.99,1.69,4.23,8.21,3.25,16.5-.22,2.05-.63,4.23-1.12,6.42-4.28-1.07-8.97-1.88-13.86-2.37-2.94-4.01-6.02-7.72-9.05-10.93,7.09-6.6,13.78-10.21,18.28-10.26h0v.05h0ZM852.52,201.77c4.5,0,11.19,3.61,18.33,10.17-3.08,3.21-6.11,6.87-9,10.88-4.94.54-9.58,1.34-13.86,2.41-.49-2.18-.89-4.28-1.12-6.33-1.03-8.34.22-14.81,3.17-16.54.85-.4,1.78-.58,2.5-.58h0ZM874.33,215.37c2.01,2.1,4.06,4.42,6.06,6.96-1.96-.09-3.96-.13-6.02-.13s-4.06.05-6.06.13c1.96-2.54,3.96-4.91,6.02-7h0v.05ZM874.37,227.1c3.3,0,6.6.13,9.81.4,1.83,2.59,3.57,5.35,5.26,8.29,1.65,2.86,3.17,5.75,4.55,8.7-1.39,2.9-2.9,5.84-4.5,8.7-1.69,2.94-3.43,5.75-5.26,8.34-3.25.27-6.55.44-9.85.44s-6.6-.13-9.81-.4c-1.83-2.59-3.57-5.35-5.26-8.29-1.65-2.86-3.17-5.75-4.55-8.7,1.34-2.94,2.9-5.84,4.5-8.7,1.69-2.94,3.43-5.75,5.26-8.34,3.25-.27,6.55-.44,9.85-.44h0ZM858.14,228.21c-1.07,1.69-2.14,3.39-3.12,5.18-.98,1.74-1.91,3.48-2.81,5.21-1.16-2.94-2.18-5.84-3.03-8.7,2.86-.67,5.89-1.25,8.97-1.74h0v.05h0ZM890.51,228.21c3.08.44,6.06,1.03,8.97,1.74-.8,2.81-1.83,5.71-2.94,8.6-.89-1.74-1.83-3.48-2.86-5.21s-2.1-3.43-3.12-5.13h-.05ZM904.2,231.24c2.14.67,4.19,1.42,6.16,2.23,7.72,3.3,12.71,7.63,12.71,11.05s-4.99,7.75-12.76,11.05c-1.88.8-3.93,1.52-6.02,2.18-1.25-4.28-2.9-8.74-4.91-13.29,2.01-4.55,3.61-8.97,4.86-13.2h0l-.05-.05h0ZM844.45,231.24c1.25,4.28,2.86,8.74,4.91,13.29-2.01,4.55-3.61,8.97-4.86,13.2-2.14-.67-4.19-1.42-6.11-2.23-7.72-3.3-12.71-7.63-12.71-11.02s4.99-7.75,12.71-11.05c1.88-.8,3.93-1.52,6.06-2.18ZM896.53,250.32c1.16,2.94,2.18,5.84,3.03,8.7-2.86.71-5.89,1.29-9,1.74,1.07-1.69,2.14-3.39,3.17-5.18,1.03-1.74,1.91-3.52,2.86-5.26h-.05ZM852.21,250.42c.89,1.74,1.83,3.48,2.86,5.26,1.03,1.74,2.05,3.43,3.17,5.08-3.12-.44-6.06-1.03-8.97-1.74.8-2.81,1.83-5.71,2.94-8.6h0ZM900.77,263.75c.49,2.18.89,4.33,1.12,6.33,1.03,8.34-.22,14.81-3.17,16.54-.67.4-1.52.58-2.5.58-4.5,0-11.19-3.61-18.33-10.17,3.08-3.21,6.11-6.87,9-10.88,4.94-.54,9.58-1.34,13.86-2.41h0ZM848.02,263.79c4.28,1.03,8.97,1.88,13.86,2.37,2.94,4.06,6.02,7.72,9.05,10.93-7.14,6.6-13.78,10.26-18.33,10.26-.98,0-1.83-.22-2.45-.58-2.99-1.69-4.23-8.16-3.25-16.5.22-2.05.63-4.19,1.12-6.42h0v-.05h0ZM868.35,266.65c1.96.09,3.96.13,6.02.13s4.06-.05,6.06-.13c-1.96,2.54-4.01,4.86-6.02,7-2.01-2.1-4.06-4.42-6.06-7Z"/>
  <path class="st2" d="M740.59,600.07c-15.81,0-25.69,7.91-29.64,23.71,5.93-7.91,12.84-10.87,20.75-8.89,4.49,1.14,7.75,4.4,11.31,8,5.83,5.88,12.55,12.75,27.22,12.75,15.81,0,25.69-7.91,29.64-23.71-5.93,7.91-12.84,10.87-20.75,8.89-4.49-1.14-7.75-4.4-11.31-8-5.83-5.88-12.55-12.75-27.22-12.75ZM710.95,635.64c-15.81,0-25.69,7.91-29.64,23.71,5.93-7.91,12.84-10.87,20.75-8.89,4.49,1.14,7.75,4.4,11.31,8,5.83,5.88,12.55,12.75,27.22,12.75,15.81,0,25.69-7.91,29.64-23.71-5.93,7.91-12.84,10.87-20.75,8.89-4.49-1.14-7.71-4.4-11.31-8-5.83-5.88-12.55-12.75-27.22-12.75Z"/>
  <path class="st2" d="M642.77,356.33l-40.38,40.38c-1.59,1.59-1.59,4.15,0,5.73s4.15,1.59,5.73,0l40.38-40.38c1.59-1.59,1.59-4.15,0-5.73s-4.15-1.59-5.73,0h0ZM634.68,311.92l-76.72,76.72c-1.59,1.59-1.59,4.15,0,5.73,1.59,1.59,4.15,1.59,5.73,0l76.72-76.76c1.59-1.59,1.59-4.15,0-5.73-1.59-1.59-4.15-1.59-5.73,0v.04Z"/>
  <path class="st2" d="M1090.67,467.8h13.53v37.91c0,17.08-8.19,23.05-21.28,23.05-3.2,0-7.3-.54-9.97-1.42l1.51-10.95c1.87.62,4.27,1.06,6.94,1.06,5.7,0,9.26-2.59,9.26-11.84v-37.82h0ZM1115.94,513.91c3.56,1.87,9.25,3.74,15.04,3.74,6.23,0,9.53-2.59,9.53-6.59,0-3.65-2.85-5.88-10.05-8.36-9.97-3.56-16.55-9.08-16.55-17.89,0-10.24,8.63-17.98,22.69-17.98,6.85,0,11.75,1.34,15.3,3.03l-3.03,10.85c-2.31-1.16-6.68-2.85-12.46-2.85s-8.72,2.76-8.72,5.79c0,3.83,3.29,5.52,11.13,8.54,10.59,3.91,15.48,9.43,15.48,17.98,0,10.05-7.65,18.6-24.12,18.6-6.85,0-13.62-1.87-17-3.74l2.76-11.13h0Z"/>
  <path class="st2" d="M574.94,208.75c2.78.65,5.31,2.1,7.27,4.19,1.08,1.13,2.02,2.38,2.8,3.74.04.15-5.01,3.54-8.09,5.44-.11.08-.55-.4-1.05-1.15-1.13-1.96-3.2-3.2-5.46-3.28-3.52-.24-5.79,1.61-5.77,4.68-.03.76.14,1.51.5,2.18.77,1.61,2.22,2.56,6.74,4.52,8.32,3.59,11.89,5.94,14.09,9.3,2.52,4.29,3.02,9.47,1.36,14.17-2.29,5.18-7.22,8.7-12.86,9.21-2.94.34-5.92.31-8.86-.09-4.5-.74-8.65-2.9-11.83-6.16-1.2-1.36-2.22-2.86-3.03-4.49.34-.25.69-.48,1.07-.68.52-.29,2.47-1.42,4.32-2.49l3.34-1.94.7,1.02c1.18,1.69,2.68,3.13,4.42,4.24,3.57,1.96,7.95,1.74,11.31-.57,1.75-1.71,2.03-4.43.65-6.45-.9-1.31-2.75-2.38-7.99-4.65-4.11-1.38-7.86-3.68-10.95-6.72-1.48-1.68-2.57-3.66-3.19-5.81-.47-2.45-.54-4.95-.2-7.42,1.26-5.82,6.02-10.23,11.92-11.04,2.93-.36,5.9-.27,8.81.25h0ZM547.66,213.6l.04,4.75h-15.14v42.99h-10.69v-42.98h-15.13v-4.66c-.04-1.6,0-3.2.13-4.8.06-.08,9.26-.11,20.43-.09l20.31.06.06,4.74h0Z"/>
  <path class="st1" d="M992.44,457.65l-3.86,6.72-38.46,66.89-3.85,6.69h92.34l-3.85-6.69-38.46-66.89-3.86-6.72h0ZM992.44,471.07l-34.61,60.18h69.21l-34.61-60.18Z"/>
  <path class="st2" d="M620.11,735.13c-2.12,2.67-6.43,1.21-6.48-2.2l-.74-49.92h33.56c6.08,0,9.47,7.02,5.69,11.79l-32.03,40.34h0Z"/>
  <path class="st0" d="M620.11,735.13c-2.12,2.67-6.43,1.21-6.48-2.2l-.74-49.92h33.56c6.08,0,9.47,7.02,5.69,11.79l-32.03,40.34h0Z"/>
  <path class="st2" d="M606.45,654.8c2.12-2.67,6.43-1.21,6.48,2.2l.33,49.92h-33.15c-6.08,0-9.47-7.02-5.69-11.79l32.03-40.34h0Z"/>
</svg>