<?xml version="1.0" encoding="UTF-8"?>
<svg id="Layer_1" xmlns="http://www.w3.org/2000/svg" version="1.1" viewBox="0 0 1600 900">
  <!-- Generator: Adobe Illustrator 29.8.1, SVG Export Plug-In . SVG Version: 2.1.1 Build 2)  -->
  <defs>
    <style>
      .st0 {
        stroke-width: .25px;
      }

      .st0, .st1, .st2 {
        fill: #231f20;
      }

      .st0, .st3 {
        stroke: #231f20;
        stroke-miterlimit: 10;
      }

      .st1 {
        fill-opacity: .2;
      }

      .st4 {
        font-family: Montserrat-ExtraBold, Montserrat;
        font-size: 45.99px;
        font-weight: 700;
      }

      .st4, .st5 {
        isolation: isolate;
      }

      .st3 {
        fill: none;
        stroke-width: 2px;
      }
    </style>
  </defs>
  <circle class="st3" cx="811.03" cy="450" r="176.14"/>
  <circle class="st3" cx="811.03" cy="450" r="328.71"/>
  <g class="st5">
    <text class="st4" transform="translate(700.86 465.11)"><tspan x="0" y="0">Database</tspan></text>
  </g>
  <path class="st2" d="M657.69,300.22c-2.73,3.43-8.25,1.55-8.32-2.83l-.96-64.11h43.1c7.81,0,12.16,9.02,7.31,15.13l-41.13,51.81Z"/>
  <path class="st1" d="M657.69,300.22c-2.73,3.43-8.25,1.55-8.32-2.83l-.96-64.11h43.1c7.81,0,12.16,9.02,7.31,15.13l-41.13,51.81Z"/>
  <path class="st2" d="M640.16,197.06c2.73-3.43,8.25-1.55,8.32,2.83l.42,64.11h-42.57c-7.81,0-12.16-9.02-7.31-15.13l41.13-51.8Z"/>
  <path class="st0" d="M1042.24,644.48s-.13-.35-.26-.52c-.61-1.14-2.1-1.49-4.42-1.01-7.22,1.49-10.02.57-11.07-.09,5.86-8.97,10.67-19.77,13.3-29.88,1.18-4.59,3.5-15.4.52-20.69-.17-.35-.39-.7-.66-1.01-5.6-7.22-13.87-11.11-23.88-11.2-6.52-.09-12.12,1.53-13.65,2.1-.74-.13-1.49-.26-2.27-.35-1.88-.35-3.81-.52-5.73-.57-5.16-.09-9.62,1.14-13.34,3.67-3.76-1.4-20.95-7.17-31.58.35-5.91,4.2-8.66,11.72-8.14,22.35.17,3.59,2.23,14.57,5.42,25.11,2.01,6.6,4.11,11.81,6.26,15.66,2.41,4.33,4.94,6.95,7.48,7.83,1.97.66,4.94.61,8.14-3.19,3.5-4.2,6.95-8,8.49-9.67,1.92,1.05,3.98,1.57,6.08,1.66h0c-.35.44-.74.87-1.09,1.36-1.49,1.88-1.79,2.27-6.56,3.24-1.36.26-4.94,1.01-5.03,3.54,0,.52.13,1.01.39,1.44,1.01,1.84,4.02,2.67,4.42,2.76,5.82,1.44,10.94.39,14.74-2.97-.09,9.75.35,19.33,1.53,22.26.96,2.41,3.32,8.31,10.8,8.31,1.09,0,2.32-.13,3.63-.39,7.79-1.66,11.2-5.12,12.51-12.73.66-3.81,1.75-12.6,2.36-17.93.09-.31.17-.52.26-.61,0,0,.31-.22,1.88.13h.17l1.09.09h.04c3.72.17,8.35-.61,11.07-1.88,2.8-1.31,7.92-4.51,7-7.3,0,0,.09.13.09.13ZM949.55,632.06c-3.24-10.67-5.16-21.39-5.29-24.36-.48-9.49,1.84-16.1,6.82-19.64,8.05-5.69,21.17-2.36,26.73-.57h0c-8.84,8.92-8.66,24.23-8.62,25.15,0,.35,0,.87.09,1.57.13,2.58.44,7.35-.31,12.77-.7,5.03.83,9.97,4.24,13.52.35.35.7.7,1.09,1.05-1.53,1.62-4.81,5.21-8.31,9.45-2.49,2.97-4.2,2.41-4.77,2.23-1.71-.57-3.54-2.58-5.42-5.77-2.1-3.67-4.2-8.88-6.21-15.35h0l-.04-.04ZM975.84,654.28c-.74-.17-1.44-.48-1.88-.79.39-.17,1.05-.39,2.1-.61,5.6-1.14,6.47-1.97,8.35-4.37.44-.57.92-1.18,1.62-1.92.13-.17.26-.35.31-.57.74-.66,1.18-.48,1.92-.17.7.26,1.36,1.14,1.62,2.1.13.44.26,1.27-.22,1.92-3.94,5.56-9.71,5.47-13.87,4.42h.04ZM984.98,636.87l-.22.61c-.57,1.57-1.14,3.02-1.44,4.37-2.93,0-5.77-1.27-7.92-3.5-2.76-2.89-3.98-6.87-3.41-10.94.79-5.73.52-10.72.35-13.38,0-.39,0-.7-.04-.96,1.31-1.14,7.3-4.37,11.55-3.37,1.97.44,3.15,1.79,3.63,4.07,2.54,11.81.35,16.75-1.44,20.73-.35.83-.7,1.57-1.01,2.41h-.04v-.04ZM1017.22,656.86c-.09.79-.17,1.66-.26,2.62l-.66,1.92s-.09.31-.09.48c0,2.06-.22,2.84-.48,3.81-.26,1.01-.61,2.14-.79,4.64-.48,6.17-3.85,9.75-10.59,11.2-6.65,1.44-7.79-2.19-8.84-5.34-.09-.35-.22-.66-.35-1.01-.96-2.58-.83-6.17-.7-11.2.09-2.45-.09-8.31-1.44-11.59,0-1.27.04-2.58.09-3.89,0-.17,0-.35-.09-.48,0-.31-.09-.61-.17-.92-.52-1.88-1.84-3.46-3.41-4.11-.61-.26-1.75-.74-3.15-.39.31-1.22.79-2.58,1.36-4.02l.22-.61c.26-.7.57-1.44.92-2.19,1.88-4.16,4.42-9.84,1.66-22.66-1.05-4.81-4.51-7.13-9.75-6.6-3.15.31-6.04,1.62-7.48,2.32-.31.13-.57.31-.87.44.39-4.86,1.92-13.87,7.61-19.6.44-.44.87-.83,1.31-1.22.22,0,.44-.13.61-.26,3.28-2.49,7.39-3.72,12.25-3.63,1.79,0,3.5.13,5.12.35,8.49,1.53,14.17,6.34,17.67,10.41,3.54,4.2,5.51,8.44,6.26,10.72-5.77-.57-9.71.57-11.72,3.41-4.33,6.21,2.36,18.24,5.6,24.06.61,1.05,1.09,1.97,1.27,2.36,1.05,2.54,2.41,4.24,3.41,5.51.31.39.61.74.83,1.05-1.75.52-4.9,1.66-4.64,7.52-.04.7-.17,1.97-.35,3.54-.22.92-.31,2.01-.44,3.37,0,0,.09,0,.09,0ZM1021.11,649.78c-.17-3.63,1.18-4.02,2.62-4.42.22-.04.39-.13.61-.17.17.17.39.31.57.44,2.49,1.66,6.91,1.84,13.17.57-.87.79-2.27,1.75-4.16,2.62-1.79.83-4.81,1.44-7.65,1.57-3.15.13-4.77-.35-5.12-.66h0l-.04.04ZM1023.61,609.23c0,1.53-.22,2.93-.48,4.37-.26,1.57-.48,3.19-.57,5.16-.04,1.92.17,3.89.39,5.82.48,3.89.96,7.87-.92,11.81-.31-.52-.57-1.09-.83-1.71-.22-.57-.74-1.44-1.44-2.71-2.71-4.81-9.01-16.14-5.77-20.73,1.66-2.36,5.86-2.49,9.54-2.01,0,0,.09,0,.09,0ZM1024.57,639.89s-.26-.31-.39-.48l-.17-.17c3.19-5.25,2.54-10.45,2.01-15.05-.22-1.88-.44-3.67-.39-5.34.04-1.79.31-3.28.52-4.77.26-1.79.57-3.67.48-5.91.04-.22.09-.52.04-.83-.22-2.14-2.62-8.49-7.57-14.22-2.67-3.11-6.52-6.56-11.77-8.92,2.32-.48,5.38-.87,8.84-.83,8.97.22,16.05,3.54,21.08,9.97.09.13.22.31.31.44,3.15,5.95-1.22,27.47-13.08,46.1,0,0,.09,0,.09,0ZM986.03,613.12c-.09.79-1.36,1.84-2.71,1.84h-.35c-.83-.13-1.66-.61-2.23-1.4-.22-.26-.52-.79-.48-1.22,0-.17.13-.44.39-.66.52-.39,1.53-.52,2.67-.39,1.4.17,2.8.83,2.67,1.84,0,0,.04,0,.04,0ZM1020.72,611.33c.04.35-.22.87-.66,1.36-.31.31-.92.87-1.79.96h-.35c-1.27,0-2.36-1.01-2.45-1.62-.09-.79,1.14-1.36,2.45-1.53s2.67,0,2.8.83Z"/>
  <path d="M1039.61,277.7c-5.88-25.94-19.77-34.47-21.26-37.73-1.3-1.83-2.46-4.44-3.42-6.69-.17,2.3-.26,3.18-2.43,5.5-3.36,2.63-20.63,17.12-22.04,46.58-1.31,27.49,19.85,43.86,22.72,45.95l.33.23c.6,4.42,1.11,8.86,1.53,13.31h2.24c.53-4.8,1.32-9.56,2.37-14.27,1.94-1.38,2.81-2.15,3.95-3.22,10.95-10.13,17.1-24.43,16.92-39.35.05-3.78-.48-7.73-.92-10.31ZM1014.8,315.8s0-38.55,1.28-38.54c.99,0,2.28,49.72,2.28,49.72-1.77-.21-3.56-8.18-3.56-11.18Z"/>
  <path class="st2" d="M647.92,614.65l-31.35-66.49c-.8-1.67-2.43-2.77-4.29-2.85-1.9-.11-3.61.8-4.59,2.39l-33.93,54.99c-1.06,1.71-1.02,3.83.08,5.54l16.62,25.73c.99,1.52,2.69,2.43,4.48,2.43.49,0,1.02-.08,1.52-.23l48.19-14.27c1.48-.46,2.69-1.48,3.3-2.88s.61-2.96,0-4.36h-.04ZM640.89,617.53l-40.91,12.11c-1.25.38-2.43-.72-2.2-1.97l14.65-69.98c.27-1.29,2.09-1.52,2.66-.3l27.06,57.45c.49,1.1-.08,2.35-1.25,2.69Z"/>
</svg>