<?xml version="1.0" encoding="UTF-8"?>
<svg id="Layer_1" xmlns="http://www.w3.org/2000/svg" version="1.1" viewBox="0 0 1600 900">
  <!-- Generator: Adobe Illustrator 29.8.1, SVG Export Plug-In . SVG Version: 2.1.1 Build 2)  -->
  <defs>
    <style>
      .st0 {
        font-family: Montserrat-ExtraBold, Montserrat;
        font-size: 45.99px;
        font-weight: 700;
      }

      .st0, .st1 {
        isolation: isolate;
      }

      .st2 {
        fill: #231f20;
      }

      .st3 {
        fill: none;
        stroke: #231f20;
        stroke-miterlimit: 10;
        stroke-width: 2px;
      }
    </style>
  </defs>
  <circle class="st3" cx="811.03" cy="450" r="176.14"/>
  <circle class="st3" cx="811.03" cy="450" r="328.71"/>
  <g class="st1">
    <text class="st0" transform="translate(735.1 462.97)"><tspan x="0" y="0">EMAIL</tspan></text>
  </g>
  <path class="st2" d="M1059.05,347.55c-19.13-.04-55.89,43.76-42.14,55.33l3.37,2.86c-.9,2.43-1.24,5.08-.94,7.64.34,3.59,2.22,7,5.21,9.69,2.86,2.52,6.57,4.1,10.2,4.1,6.02,13.83,19.72,22.33,35.82,22.8,17.25.51,31.72-7.6,37.78-22.12.38-1.02,2.09-5.64,2.09-9.69s-2.31-5.76-3.8-5.76c-.04-.17-.34-1.24-.73-2.52s-.81-2.18-.81-2.18c1.62-2.39,1.62-4.53,1.41-5.76-.21-1.49-.85-2.78-2.13-4.1s-3.84-2.69-7.47-3.71l-1.92-.51s-.09-4.48-.17-6.4c-.04-1.37-.17-3.5-.85-5.64-.81-2.86-2.18-5.34-3.89-6.96,4.74-4.91,7.73-10.33,7.68-14.99,0-8.97-11.01-11.66-24.55-6.06l-2.86,1.2c-1.75-1.71-3.5-3.46-5.25-5.17-1.71-1.49-3.76-2.13-6.11-2.13l.04.09ZM1059.35,351.27c.73,0,1.37.09,2.01.26,1.28.34,5.46,5.21,5.46,5.21,0,0-7.81,4.31-15.03,10.37-9.73,7.51-17.12,18.4-21.52,30.23-3.46.68-6.53,2.65-8.37,5.34-1.11-.94-3.2-2.73-3.54-3.42-2.99-5.68,3.24-16.65,7.6-22.88,9.86-14.13,24.98-25.1,33.39-25.1ZM1073.4,365.27s.26.21.13.3c-.6.47-1.28,1.11-1.75,1.75-.04.09,0,.17,0,.26h.09c2.82,0,6.79,1.02,9.35,2.43.17.09.04.43-.13.38-3.89-.9-10.29-1.58-16.95.04-5.93,1.45-10.46,3.67-13.75,6.11-.17.13-.38-.09-.26-.26,3.84-4.4,8.54-8.24,12.77-10.42.13-.09.3.09.21.21-.34.6-.98,1.92-1.2,2.9,0,.13.13.26.26.17,2.6-1.79,7.17-3.71,11.19-3.97l.04.09ZM1086.29,378.93h.26c.68,0,1.37.26,1.96.64,2.26,1.54,2.6,5.21,2.73,7.86.04,1.54.26,5.25.3,6.32.13,2.43.77,2.78,2.09,3.2.73.26,1.41.43,2.39.68,3.03.85,4.78,1.71,5.93,2.82.68.68.98,1.41,1.07,2.13.34,2.6-2.01,5.81-8.28,8.71-6.87,3.2-15.2,4.01-20.92,3.33l-2.01-.21c-4.61-.64-7.22,5.34-4.48,9.39,1.79,2.6,6.62,4.31,11.48,4.31,11.1,0,19.64-4.74,22.84-8.84.09-.13.17-.26.26-.34.17-.26,0-.34-.17-.21-2.6,1.79-14.13,8.84-26.47,6.7,0,0-1.49-.26-2.86-.77-1.11-.43-3.37-1.45-3.63-3.8,9.95,3.07,16.22.17,16.22.17.13-.04.17-.17.17-.3,0-.17-.17-.26-.3-.26h0s-8.15,1.2-15.88-1.62c.85-2.73,3.07-1.75,6.45-1.45,5.25.3,10.5-.26,15.58-1.67,3.5-.98,8.07-2.99,11.66-5.81,1.2,2.65,1.62,5.55,1.62,5.55,0,0,.94-.17,1.71.3.73.47,1.28,1.41.9,3.84-.77,4.53-2.69,8.24-5.93,11.61-2.01,2.18-4.44,3.97-7.13,5.29-1.45.77-2.99,1.41-4.65,1.96-12.21,3.97-24.72-.38-28.78-9.82-.34-.73-.6-1.45-.81-2.22-1.71-6.19-.26-13.66,4.31-18.36.26-.3.56-.64.56-1.11,0-.38-.26-.77-.43-1.02-1.58-2.31-7.13-6.28-6.02-13.88.81-5.46,5.59-9.35,10.08-9.14.38,0,.77.04,1.15.09,1.92.13,3.63.38,5.21.43,2.65.13,5.08-.26,7.9-2.65.98-.81,1.75-1.49,3.03-1.71.13,0,.38-.13.94-.13l-.04-.04ZM1086.38,388.24h-.26c-1.41.21-1.49,2.01-.98,4.44.3,1.37.81,2.56,1.37,3.29.73-.09,1.45-.09,2.13,0,.38-.85.43-2.39.09-4.01-.47-2.26-1.11-3.71-2.35-3.71ZM1070.75,394.86c-1.54,0-3.07.47-4.35,1.41-.68.51-1.32,1.2-1.24,1.62,0,.13.13.26.38.26.56.09,2.52-.94,4.78-1.07,1.58-.09,2.9.38,3.93.85,1.02.43,1.67.73,1.88.47.17-.17.13-.47-.13-.85-.51-.81-1.54-1.67-2.65-2.13-.85-.34-1.75-.56-2.65-.56h.04ZM1088.17,398.32c-.73,0-1.32.81-1.37,1.79,0,1.02.56,1.84,1.28,1.84s1.32-.81,1.37-1.79c0-1.02-.56-1.84-1.28-1.84ZM1072.89,399.04h-.64c-1.32.21-2.05.64-2.52,1.07-.38.34-.64.73-.64,1.02,0,.17.13.34.3.34h0c.3,0,.98-.26.98-.26,1.37-.51,2.82-.68,4.27-.43.68.09.98.13,1.15-.13.04-.09.09-.21-.04-.43-.26-.43-1.32-1.15-2.82-1.15h0l-.04-.04ZM1082.53,400.75c-.56,0-1.02.21-1.2.64-.34.64.13,1.54,1.07,2.01.9.43,1.88.26,2.22-.38.34-.64-.13-1.54-1.07-2.01-.3-.17-.64-.26-1.02-.26h0ZM1032.88,400.84h.64c3.12.17,7.73,2.56,8.75,9.35.94,6.02-.56,12.13-6.19,13.11-.51.09-1.07.13-1.58.13-5.21-.13-10.84-4.82-11.4-10.37-.6-6.15,2.52-10.89,8.07-12,.51-.09,1.07-.17,1.71-.17v-.04ZM1032.58,404.81c-1.37,0-2.69.56-3.63,1.54-1.62,1.79-1.88,4.23-1.58,5.08.13.3.3.38.43.43.26,0,.68-.17.94-.85,0-.09.04-.13.09-.21.17-.56.38-1.07.68-1.58.9-1.37,2.73-1.75,4.06-.85h0c1.15.73,1.58,2.13,1.11,3.46-.26.68-.64,2.01-.56,3.07.17,2.18,1.54,3.07,2.73,3.16,1.15.04,2.01-.6,2.18-1.11.13-.3,0-.47-.04-.51-.17-.21-.47-.17-.77-.09-.21.04-.47.09-.68.09-.51,0-.98-.21-1.24-.64-.34-.51-.3-1.28.04-2.13.04-.13.13-.26.17-.38.6-1.32,1.58-3.5.47-5.64-.85-1.58-2.18-2.56-3.8-2.78-.21,0-.38,0-.6-.04h0Z"/>
  <path d="M539.68,497.5v82.37h19.06v-28.94h10.29l16.31,28.94h22.82l-18.44-31.77c4.74-2.24,8.7-5.84,11.38-10.35,2.43-4.15,3.64-8.82,3.64-14s-1.21-9.5-3.64-13.42c-2.43-4-5.81-7.13-10.12-9.41-4.23-2.28-8.97-3.41-14.23-3.41h-37.06ZM558.73,514.21h14.48c2.51,0,4.63.43,6.35,1.29,1.81.86,3.17,2.12,4.12,3.77.94,1.57,1.41,3.41,1.41,5.53s-.43,4-1.3,5.65c-.79,1.65-1.96,2.94-3.53,3.88-1.49.86-3.25,1.3-5.29,1.3h-16.24v-21.41Z"/>
</svg>