<?xml version="1.0" encoding="UTF-8"?>
<svg id="Layer_1" xmlns="http://www.w3.org/2000/svg" version="1.1" viewBox="0 0 1600 900">
  <!-- Generator: Adobe Illustrator 29.8.1, SVG Export Plug-In . SVG Version: 2.1.1 Build 2)  -->
  <defs>
    <style>
      .st0 {
        fill: #231f20;
      }

      .st1 {
        fill: none;
        stroke: #231f20;
        stroke-miterlimit: 10;
        stroke-width: 2px;
      }

      .st2 {
        font-family: Montserrat-Black, Montserrat;
        font-size: 45.99px;
        font-weight: 800;
      }
    </style>
  </defs>
  <circle class="st1" cx="811.03" cy="450" r="176.14"/>
  <circle class="st1" cx="811.03" cy="450" r="328.71"/>
  <path class="st0" d="M614.48,291.82c-10.86-4.05-16.81-7.15-16.81-12.06,0-4.15,3.4-6.5,9.51-6.5,11.16,0,22.57,4.3,30.47,8.16l4.45-27.47c-6.25-3-19.01-7.86-36.72-7.86-12.51,0-22.92,3.25-30.32,9.36-7.71,6.4-11.76,15.61-11.76,26.77,0,20.21,12.36,28.82,32.42,36.12,12.96,4.6,17.21,7.86,17.21,12.91s-4.2,7.76-11.76,7.76c-9.41,0-24.87-4.6-34.97-10.56l-4.5,27.82c8.71,4.9,24.77,9.96,41.43,9.96,13.21,0,24.22-3.1,31.67-9.06,8.31-6.55,12.61-16.21,12.61-28.67,0-20.66-12.61-29.27-32.97-36.57h0l.05-.1h0Z"/>
  <path class="st0" d="M1037.08,452.83l15.1-41.48c1.78-4.84,1.66-10.19-.38-14.91-4.91-11.53-18.22-15.23-28.74-11.02-10.51,4.21-16.44,13.83-11.34,25.74l17.97,41.8c1.4,3.25,6.18,3.12,7.39-.19M1047.79,459.77l41.61-17.71c13.83-5.86,17.33-23.51,6.5-33.7l-.45-.38c-10.64-9.88-28.16-6.37-34.21,6.63l-18.67,40.14c-1.47,3.19,1.91,6.5,5.22,5.1M1050.21,465.31l42.37-15.99c14.08-5.29,29.44,4.71,29.24,19.37v.57c-.32,14.27-15.29,23.83-29.05,18.8l-42.5-15.55c-1.98-.7-3.06-2.87-2.36-4.84.38-1.08,1.21-1.98,2.29-2.36M1047.72,477.61l41.03,18.99c4.78,2.17,8.54,6.05,10.64,10.83,4.91,11.47-1.78,23.19-12.3,27.4-10.51,4.21-21.73,1.53-26.82-10.45l-17.84-41.86c-1.4-3.25,2.1-6.44,5.35-4.91"/>
  <text class="st2" transform="translate(692.8 468.65)"><tspan x="0" y="0">PAYMENT</tspan></text>
</svg>