<?xml version="1.0" encoding="UTF-8"?>
<svg id="Layer_1" xmlns="http://www.w3.org/2000/svg" version="1.1" viewBox="0 0 1600 900">
  <!-- Generator: Adobe Illustrator 29.8.1, SVG Export Plug-In . SVG Version: 2.1.1 Build 2)  -->
  <defs>
    <style>
      .st0 {
        font-family: Montserrat-ExtraBold, Montserrat;
        font-size: 45.99px;
        font-weight: 700;
      }

      .st0, .st1 {
        isolation: isolate;
      }

      .st2 {
        fill: none;
        stroke: #231f20;
        stroke-miterlimit: 10;
        stroke-width: 2px;
      }
    </style>
  </defs>
  <circle class="st2" cx="811.03" cy="450" r="176.14"/>
  <circle class="st2" cx="811.03" cy="450" r="328.71"/>
  <g class="st1">
    <text class="st0" transform="translate(762.78 462.16)"><tspan x="0" y="0">SEO</tspan></text>
  </g>
  <path d="M607.38,514.21h11.88l-25.96,29.68,30.54,40.37h-23.92l-18.73-24.49-21.44,24.49h-11.89l27.77-31.74-29.3-38.3h24.52l16.93,22.38,19.58-22.39ZM603.21,577.15h6.58l-42.51-56.2h-7.07l42.99,56.2Z"/>
  <path d="M983.28,222.15v19.5l-12.24,1.64v11.52l12.24-1.64v11.69l11.42-1.53v-11.69l20.56-2.75-1.51-11.32-19.05,2.55v-17.97h-11.42ZM957.33,225.61v19.5l-20.56,2.75,1.52,11.32,19.14-2.56,11.33-1.52v-29.49h-11.42ZM968.85,257.4l-11.42,1.53v11.7l-20.22,2.71,1.52,11.32,19.05-2.55v17.97h11.42v-19.5l11.81-1.58v-11.52l-12.15,1.63v-11.7ZM1013.76,263.09l-19.05,2.55-11.42,1.53v29.5h11.42v-19.5l20.56-2.75-1.52-11.32Z"/>
  <path d="M1023.18,669.89h-92.86c-4.32,0-7.82-3.5-7.82-7.82v-51.13c0-4.32,3.5-7.82,7.82-7.82h92.86c4.32,0,7.82,3.5,7.82,7.82v51.12c0,4.32-3.5,7.82-7.82,7.83h0ZM948.58,654.24v-20.34l10.43,13.04,10.43-13.04v20.34h10.43v-35.47h-10.43l-10.43,13.04-10.43-13.04h-10.44v35.48h10.44ZM1018.49,636.5h-10.44v-17.74h-10.43v17.74h-10.43l15.65,18.26,15.66-18.26Z"/>
  <path d="M594,226.01h79l-7.19,81.12-32.4,9.17-32.22-9.17-7.2-81.11ZM620.45,262.69l-.87-10.22h37.84s.87-9.85.87-9.85h-49.57s2.63,30.12,2.63,30.12h34.33l-1.23,12.89-10.95,3.02-11.12-3.05-.71-7.94h-9.81l1.24,15.69,20.4,5.45,20.24-5.43,2.8-30.69h-36.08Z"/>
</svg>