<?xml version="1.0" encoding="UTF-8"?>
<svg id="Layer_1" xmlns="http://www.w3.org/2000/svg" version="1.1" viewBox="0 0 1600 900">
  <!-- Generator: Adobe Illustrator 29.8.1, SVG Export Plug-In . SVG Version: 2.1.1 Build 2)  -->
  <defs>
    <style>
      .st0 {
        fill: #231f20;
      }

      .st1 {
        fill: none;
        stroke: #231f20;
        stroke-miterlimit: 10;
        stroke-width: 2px;
      }

      .st2 {
        font-family: Montserrat-Black, Montserrat;
        font-size: 45.99px;
        font-weight: 800;
      }
    </style>
  </defs>
  <circle class="st1" cx="811.03" cy="450" r="176.14"/>
  <circle class="st1" cx="811.03" cy="450" r="328.71"/>
  <text/>
  <text class="st2" transform="translate(731.28 455.35)"><tspan x="0" y="0">UI KIT</tspan></text>
  <path class="st0" d="M811.87,145.3c-21.49,0-34.93,10.75-40.3,32.24,8.06-10.75,17.46-14.78,28.21-12.09,6.11,1.54,10.54,5.98,15.38,10.88,7.93,7.99,17.06,17.33,37.01,17.33,21.49,0,34.93-10.75,40.3-32.24-8.06,10.75-17.46,14.78-28.21,12.09-6.11-1.54-10.54-5.98-15.38-10.88-7.93-7.99-17.06-17.33-37.01-17.33ZM771.58,193.66c-21.49,0-34.93,10.75-40.3,32.24,8.06-10.75,17.46-14.78,28.21-12.09,6.11,1.54,10.54,5.98,15.38,10.88,7.93,7.99,17.06,17.33,37.01,17.33,21.49,0,34.93-10.75,40.3-32.24-8.06,10.75-17.46,14.78-28.21,12.09-6.11-1.54-10.48-5.98-15.38-10.88-7.93-7.99-17.06-17.33-37.01-17.33Z"/>
  <path class="st0" d="M604.46,449.13l-41.97,41.97c-1.65,1.65-1.65,4.31,0,5.96s4.31,1.65,5.96,0l41.97-41.97c1.65-1.65,1.65-4.31,0-5.96s-4.31-1.65-5.96,0ZM596.05,402.98l-79.75,79.75c-1.65,1.65-1.65,4.31,0,5.96,1.65,1.65,4.31,1.65,5.96,0l79.75-79.79c1.65-1.65,1.65-4.31,0-5.96-1.65-1.65-4.31-1.65-5.96,0v.04Z"/>
  <path d="M811.91,640.84c-1.26.05-2.53.17-3.79.35-1.21.13-2.44.34-3.61.52-1.44.18-2.87.27-4.31.44-1.35.18-2.74.44-4.1.66-.48.09-.96.26-1.44.34-1.04.22-2.13.31-3.17.66-1.88.58-3.74,1.22-5.58,1.92-1.7.7-3.35,1.44-4.96,2.31-1.66.91-3.23,2-4.79,3.05-1.49.99-2.96,2.05-4.41,3.18-1.38,1.09-2.69,2.31-3.96,3.53-.7.7-1.26,1.53-1.91,2.31-1.09,1.27-2.18,2.48-3.23,3.79-.86,1.09-1.66,2.23-2.48,3.36-1.48,2-2.74,4.14-3.91,6.28-.48.87-.91,1.75-1.34,2.62-.66,1.31-1.35,2.57-1.97,3.92-.43.91-.78,1.92-1.04,2.92-.61,2.14-1.21,4.29-1.78,6.45-.53,1.92-.66,3.92-.7,5.89-.04,1.74.13,3.44.31,5.19.04.44-.22.97.3,1.31-.17.48-.04.74.22.83-.3.48.13.78-.04,1.22-.04.09.13.27.22.39,0,.13-.04.31,0,.43.05.4.22.79.22,1.23,0,.3.27.65.35.96.04.13,0,.35-.09.43-.26.31-.22.57.18.75.22.56.13.83.09,1.09.09.39-.04.52,0,.61.35.7.48,1.48.52,2.26,0,.18.09.35.18.58.04,0,0,.83,0,.83.22-.13.39-.17.61-.27.13.57.27,1.1.44,1.58.22.35.22.52.13.56.17.78.26,1.52.56,2.26,0-.82-.09-1.65-.22-2.44.61.22,1.13.43,1.48.43.04-.12.09-.3.13-.39-.26-.26-.48-.65-.74-.91.09.35,0,.48,0,.61-.2-.1-.4-.19-.61-.27.18-.22.35-.43.61-.7,0-.39-.22-.74-.83-.7.27-.08.52-.22.83-.3.48-.26-.04-.74-.04-1.34.04-.75-.39-1.49-.52-2.27-.22-1.22-.18-3.05-.31-4.27-.26-.22-.48.35-.52.39.14,1.05.26,2.1.34,3.14-.26-.87-.43-1.83-.65-2.88-.05.31-.09.43-.09.61-.22.22-.04.48.09.78-.3-.13-.65-.09-.65-.09v1.22c-.44-.43-.57-.78-.79-1.09-.09-.35-.13-.7-.22-1.04.08-.22,0-.35,0-.48l-.13-1.05c0-.23-.01-.47-.04-.7.35.05.57.09.78.09-.43-.56-.13-.91.04-1.26.09-.18.39-.22.48-.4.34-.65.91-1.17.91-2,0-.39.13-.83.17-1.22.1-.74.17-1.48.22-2.23.09-.96,0-1.92.22-2.83.35-1.52.78-3.05,1.26-4.58.35-1.09.74-2.13,1.18-3.23.65-1.7,1.26-3.4,2.09-5.02,1.18-2.35,2.53-4.62,3.83-6.93.83-1.44,1.7-2.8,2.62-4.19.86-1.34,1.74-2.74,2.74-4.01,1.4-1.78,2.92-3.44,4.62-4.93,1.74-1.57,3.39-3.18,5.27-4.62,2.43-1.88,5.02-3.54,7.74-4.97,2.23-1.18,4.53-2.1,6.84-2.97,1.48-.56,3.09-.83,4.62-1.31,1.74-.57,3.48-.83,5.31-.87,1.18-.04,2.31-.18,3.48-.31,1.08-.08,2.15-.18,3.23-.31-.08.11-.15.23-.22.35-.48.7-1.01,1.4-1.48,2.1-.39.56-.83,1.17-1.22,1.74-.7.91-1.44,1.83-2.1,2.8-.99,1.44-1.91,2.92-2.96,4.35-1.04,1.4-2.18,2.71-3.27,4.06-1.44,1.88-2.78,3.79-4.22,5.67-1.31,1.78-2.7,3.49-3.96,5.28-1.13,1.57-2.14,3.23-3.23,4.84-1.61,2.4-3.23,4.75-4.84,7.15-1.26,1.83-2.54,3.65-3.83,5.46-.09.13-.22.17-.35.26-.34.56-.34.87-.48,1.13-.33.66-.69,1.3-1.09,1.92-.22.35-.52.66-.78,1.01-.04-.53.7-.79.35-1.45-.22.36-.43.66-.65,1.01l-.54,1.04c.18.13.47.22.19.47-.03-.11-.17-.17-.28-.26-.37.51-.71,1.04-1.04,1.57.27.22.39.13.56-.18.16-.32.39-.56.59-.83l-.23.4c.19-.11.35-.26.48-.43,0,.47-.27.86-.48,1.25-.18.35-.61.61-.91.88.04.04.35.17.39.22.39-.13.52-.34.57-.22.13-.18.26-.31.3-.43.14-.43.46-.78.87-.97.16-.09.31-.21.43-.34,1.31-1.35,2.66-2.67,3.84-4.11,1.83-2.22,3.48-4.53,5.23-6.8.74-.96,1.61-1.92,2.39-2.83.13,1,.04,1.96,0,2.88-.13,1.61-.22,3.23-.35,4.88-.04.66,0,1.31-.04,1.97,0,.17-.13.3-.13.48,0,.43.13.91.13,1.34-.13,1.61-.31,3.18-.44,4.8-.04.34.13.7.22,1-.22,2.35.27,4.84-.13,7.33.31-.48.39-.79.39-1.09.04-.27,0-.52,0-.83v-.43c.04-.79.22-1.61.13-2.41-.1-.84-.08-1.69.09-2.53.09-.35-.04-.78.18-1.22v.65c-.04,2.49.05,4.98-.3,7.46-.04.22.13.61-.35.57-.39.78.09,1.35-.35,1.79-.09.09.09.48.13.74q-.17.52.09.56c.04.97.13,1.83.18,2.74.7-1.65.34-3.35.66-5.06.04.7.09,1.4.04,2.14,0,1.13-.05,2.23-.09,3.36,0,.22-.04.43-.09.66-.13.61-.17,1.22-.39,1.78-.18.43-.09,1.09-.09,1.61v1.67c.17.74-.05,1.13.09,1.56-.13.45-.18.58-.13.7l.13.66c.87-.09.48.57.82.91-.26.35-.17.48-.17.66,0,.39-.04.74-.09,1.13,0,1.01-.04,2.01-.04,2.97,0,.13.04.26.04.39l-.04,1.22c.09.13,0,.27-.13.39-.04,0-.17-5.54-.17-5.54h-.65c-.09,2.61.12,4.97-.35,7.42-.52.04-.7.12-1.26.12-1.35,0-2.71,0-4.05.04-1.61,0-3.17.04-4.78.04-.79,0-1.61.09-2.4.09-1.05,0-2.13-.13-3.17-.13-1.61,0-3.19.13-4.8.17-1.18.04-2.35.04-3.53.09-.78.04-1.57.08-2.35.17-.34.04-.65.17-1.09.3-.13,0-.43-.04-.7,0-.43.09-.82.35-1.26.44-.66.13-.83.3-.74.96v.43c-.04.09.96-.13.96-.13-.09,0-.13.27-.26.48.35-.13.57-.22.79-.31.65.31,1.21.13,1.74.27,1.7.43,3.44.61,5.18.78,1.13.09,2.23.13,3.35.17,1.61.09,3.23.18,4.84.18,1.34,0,2.65-.13,4-.13,1.87,0,3.75.09,5.62.13.39,0,.83-.04,1.26-.04h3.18c2.83-.09,5.66-.13,8.49-.22,1.61-.05,3.27-.13,4.88-.18l4.97-.13c1.92-.04,3.83-.04,5.71-.08,1.44,0,2.83-.05,4.27-.09,1.61-.04,3.26-.17,4.88-.26.87-.04,1.74-.13,2.61-.22,1.05-.09,2.14-.22,3.18-.27,1.56-.09,3.17-.13,4.75-.22,1.96-.13,3.92-.31,5.92-.35,1.83-.09,3.7-.04,5.54-.09,1.61-.04,3.22-.13,4.88-.18l2.74-.13s1.83-.04,2.74-.13c1.57-.09,3.14-.27,4.71-.31,1-.04,2,0,3-.04,1.61-.04,3.26-.13,4.87-.13.61,0,1.26.09,2.04.13-.34.31-.56.48-.82.7.17.04.34.13.52.22-.2.14-.45.22-.7.22-.09.23-.17.31-.26.75h.78c-.3,0-.56.39-.86.66-.35-.09-.66,0-.84.48.31.16.27.3.22.48-.52.16-.91.34-.69.91-.18.08-.38.18-.61.3-.22.35-.61.43-.52.91.17.04.34.13.48.18-.23.09-.44.22-.66.3-.78.48-.43.7-.26.91-.13.1-.26.17-.39.22.09.4.22.48.26.48l-.46.37.05-.15h-.17c0,.08,0,.15.03.22l-.11.09c-.13.39-.3.56-.48.82-.16.26-.25.61-.47.87-.91,1.01-1.57,2.18-2.74,2.97-.44.31-.83.7-1.22,1.09-.78.74-1.48,1.57-2.31,2.27-1.09.91-2.22,1.76-3.39,2.57-1.44,1.01-2.87,2.01-4.31,2.97-.78.52-1.66.91-2.48,1.4s-1.61.91-2.44,1.4c-.52.34-1,.82-1.56,1.09-1.44.61-2.96,1.13-4.45,1.7-1.44.61-2.48,1.13-3.57,1.53-1.01.34-2.05.61-3.09.82-.35.09-.74,0-1.13.05-.74.13-1.48.31-2.23.39-1.91.26-3.83.43-5.75.7-1.13.13-2.22.34-3.35.48-.78.04-1.61-.05-2.4-.05-.56,0-1.17.13-1.74.05-.91-.14-1.83-.35-2.74-.53-.22-.04-.52-.13-.7-.04-.34.17-.66-.09-1.01,0-.22.04-.43-.13-.65-.13-.18-.04-.4.05-.62,0-.48-.13-.91-.3-1.44-.26-.52.04-1.04-.22-1.6-.35l-2.31-.52c-.31-.09-.6-.23-.87-.39-1.13,0-1.87-.04-2.57-.31-.61-.22-1.18-.52-1.83-.43-.17.04-.31-.05-.48-.05-.13-.18-.26-.53-.39-.53-.87.04-1.4-.7-2.13-.91-.39-.13-.7-.56-1.09-.7-.97-.39-1.74-1.22-2.83-1.34-.34-.05-.7-.23-1.09-.35.13.17.22.31.34.43-1.26-.61-2.44-1.3-3.61-1.96-.17-.04-.3-.22-.43-.31l-1.18-.79c-.65.13-.91-.13-1.09-.22-1.17-.83-2.53-1.35-3.66-2.26-.48-.4-1.04-.66-1.4-1.14-.6-.7-1.34-1.28-2.17-1.7-.66-.34-1.26-.74-1.87-1.13-.31-.22-.61-.48-.61-.97,0-.3-.13-.61-.52-.43-.17-.27-.35-.57-.56-.66-.52-.22-.87-.61-1.26-.97-.39-.34-.7-.82-1.18-.99-.87-.35-1.4-1.09-1.91-1.7-1.23-1.44-2.31-3.01-3.44-4.54-.09-.13-.27-.22-.4-.35.18.48.39.87.61,1.31-.39-.18-.73-.45-1-.78-.04.04,3,5.06,3,5.06.27.39.48.78.74,1.18-.54.05-1.05-.23-1.31-.7-.39-.7-.83-1.13-1.7-1.04-.09-.32-.16-.64-.22-.97-.21,0-.41,0-.61-.04.61.96,1.13,1.79,1.7,2.74l-.43-.25c.78.83,1.34,1.88,2.34,2.4.22,1.01,1.34,1.48,1.61,2.44l-.61-.13c-.35-.44-.74-.87-1.13-1.35.07.28.21.55.39.78.53.66,1.01,1.31,1.61,1.88.22.22.53.31.53.7.34.17.48.22.61.22.09.26-.04.66.48.57.34.65.69.65,1.17.43.56.56.87.61,1.26.27,0,.22.04.43.04.61.17-.09.13-.22.13-.44.22.18.34.26.43.35.43.61.83,1.18,1.44,1.65.83.7,1.56,1.44,2.35,2.1,1.52,1.26,3.23,2.31,4.92,3.27,2.1,1.18,4.1,2.45,6.24,3.57,2.57,1.33,5.31,2.31,8.13,2.93,1.05.22,2.04.43,3.1.7.91.26,1.83.65,2.74.87,1.4.31,2.83.57,4.22.83l.96.13c.39.09.86-.09.95.04.22.35.39.17.66.13.31-.09.65-.09,1-.09,1.22.04,2.39.3,3.61.22.27,0,.66-.22.88.22.39-.17.61-.17.78-.22.04.39,0,.39-.09.43-.09.05-.22.09-.39.22,1.57.31,3.05.35,4.35,0,2.06.19,4.14-.05,6.1-.73.17.22.3.52.56.09.09-.13.3-.18.48-.22.39-.09.87-.27,1.22-.14.39.13.52-.22.83-.22.52,0,1-.04,1.48-.13.26-.04.52-.18.82-.27-.3-.14-.63-.22-.96-.22.49-.24.98-.48,1.48-.7-.09.13-.18.31-.35.31h.61c-.13,0-.31.39-.52.66,1.56-.39,3-.74,4.4-1.1-.48-.91.52-.61.87-1.13-.43.13-.87.25-1.31.34,1.48-.74,3-1.4,4.48-2.04-.22.26-.48.39-.87.61.26.04.43.04.57.08.69.22.52-.43.74-.83.83,0,1.18-.13,1.57-.27.43-.12.87-.26,1.31-.43.7-.3,1.34-.7,2.04-1.04.13-.05.35,0,.53,0,.48-.31.65-.57.78-.53.61.09,1.04-.13,1.22-.7l.12-.08c.18.38.53.43,1.09.04-.36,0-.69-.04-1.01-.09-.03,0-.05.02-.06.03.22-.17.41-.31.59-.43.96-.52,1.87-1.04,2.83-1.56.35,0,.52,0,.61-.04.55-.27,1.09-.56,1.61-.88-.13-.04-.43-.22-.43-.22.28-.05.56-.12.83-.22,1.04-1.24,2.47-2.06,3.57-3.01.48-.04.48-.17.48-.26.17-.22.34-.48.56-.66.95-.88,1.99-1.61,2.87-2.53,1.27-1.27,2.47-2.58,3.62-3.93,1.04-1.22,2.1-2.44,2.96-3.79,1.23-1.88,2.27-3.79,3.36-5.76.78-1.4,1.48-2.8,2.27-4.18.08-.13.26-.31.39-.31,1.18-.13,2.35-.22,3.49-.35.25-.04.56-.22.82-.35-.13-.22-.22-.48-.34-.7-.18-.27-.43-.48-.61-.74-.17-.22-.3-.48-.43-.74-.13-.22-.27-.39-.4-.61-.27-.48-.52-.97-.74-1.48-.04-.13-.13-.35-.09-.48.78-1.69,1.09-3.53,1.83-5.22.74-1.75.97-3.71,1.31-5.59.31-1.78.48-3.57.7-5.36.13-1.26.31-2.48.34-3.75.27-2,.18-3.89.13-5.76-.04-1.66-.13-3.35-.22-5.02-.09-1.7-.13-3.4-.31-5.11-.3-2.31-.61-4.67-1.13-6.93-.43-1.86-1-3.68-1.7-5.45-.83-2.1-1.66-4.23-2.7-6.24-1.7-3.23-3.92-6.11-5.97-9.12-1.35-1.92-3.1-3.49-4.41-5.45-.73-1.13-1.83-2.1-2.91-2.96-1.74-1.37-3.54-2.67-5.4-3.89-1.38-.97-2.8-1.87-4.27-2.71-1.18-.66-2.44-1.18-3.66-1.75-1.4-.65-2.75-1.44-4.32-1.74-.39-.09-.74-.22-1.13-.35-1.01-.35-1.96-.74-2.97-1.05-1.52-.48-3.01-1.04-4.57-1.44-1.54-.38-3.1-.67-4.68-.88-1.74-.25-3.52-.34-5.27-.52-1.11-.14-2.23-.24-3.35-.3-1.65-.1-3.35-.1-5-.13-.83-.04-1.7-.13-2.53-.09h0ZM815.64,645.89c.56.1,1.1.17,1.61.22l2.09.13c1.57.12,3.13.22,4.7.43,1.31.18,2.61.44,3.96.66,2.87.5,5.69,1.23,8.45,2.18,1.61.53,3.17,1.23,4.75,1.88,3.53,1.44,6.88,3.18,10.19,5.01,1.04.57,1.66,1.48,2.44,2.31,1.13,1.18,2.26,2.35,3.35,3.57,1.26,1.44,2.43,2.92,3.66,4.41,1.08,1.31,2.21,2.61,3.31,3.92.35.39.61.88.91,1.31.7,1.04,1.48,2.04,2.1,3.18.43.83.7,1.79.99,2.7.43,1.35.87,2.66,1.31,4.01.3,1.01.56,2.05.78,3.1.18.7.13,1.44.35,2.13.27.91,0,1.92.27,2.84.04.09.08.22.12.31.18.17.31.35.04.61-.04.04-.04.22,0,.34.09-.09.13-.17.22-.31,0,.09.05.13.05.18,0,.17-.05.35,0,.52,0,.09.08.22.12.31.09-.09.17-.13.34-.27.39,1.48.44,2.97.44,4.49,0,1.44.26,2.88-.35,4.27.13-.48-.18-.91-.04-1.35h.02s-.3-.26-.34-.3c-.05.13,0,.27-.09.43-.04-.12-.34-.08-.34-.22-.05.62.26,1.23.22,1.83.13-.08.65-.12.78-.25.05.04.11.07.17.09-.87.66-.65,1.31-.26,2.05.09.17.34.52.09.87-.09.09.04.35.09.57h.13v.08l-.39.13c-.09-.13-.61-.39-.61-.61v2.23c.43.13.43.74.61,1.05.08-.1.14-.22.18-.34l.04.04c-.04.26-.09.52-.17.78-.09.39-.18.74-.22,1.13,0,.04.08.13.08.18-.48,1.09-.22,2.31-.39,3.44-.13.83,0,1.7-.09,2.58-.1.76-.25,1.51-.43,2.26-.05.13-.14.18-.35.27.07-.45.05-.91-.04-1.35-.04,0-.61-.31-.66-.31,0,.61.35,1.44.48,2.14-.13-.04-.66-.35-.7-.35-.09.52-.09,1.22-.13,1.78-.04.44-.43.83-.48,1.31,0,.27.31.43.27.87h.34c0-.87.4-1.66.4-2.57h.12c.05.09.18.17.13.22-.09.48-.27,1.01-.22,1.48,0,.27.22.52.13.83-.09.3-.14.6-.18.91-.04-.22-.09-.3-.09-.43l-.48-.04c-.04.27.31.52.27.74-.05.04-.09.04-.18.09l-1.44-2.1c-1.14-1.66-2.28-3.33-3.4-5.01-.29-.42-.56-.86-.79-1.31-1.33-2.31-2.83-4.53-4.48-6.67-1.26-1.61-2.27-3.36-3.44-5.05-1.09-1.62-2.18-3.19-3.27-4.81-.39-.52-.87-1-1.22-1.57-1.13-1.78-2.13-3.62-3.26-5.41-.96-1.48-2-2.92-3.01-4.35-.35-.49-.7-1-1.04-1.54-.06-.09-.09-.19-.09-.3-.09-.94-.16-1.89-.22-2.84,0-.87.09-1.74.09-2.66v-.79c0-.22.04-.39.04-.61.04-.04.09-.13.13-.18-1.26,0-2.57-.05-3.83,0-.83.04-1.26-.31-1.83-.91-1.66-1.88-2.88-4.02-4.31-6.02-1.35-1.91-2.73-3.8-4.14-5.67-1.13-1.53-2.27-3.01-3.4-4.54-1.27-1.74-2.48-3.49-3.79-5.23-1.58-2.1-3.17-4.19-4.79-6.28-.74-.96-1.57-1.88-2.4-2.88M811.6,648.18c.09.02.18.09.27.2,1.17,1.48,2.35,3.01,3.52,4.49.88,1.1,1.75,2.14,2.58,3.28.99,1.4,1.96,2.8,2.96,4.18,1.13,1.61,2.25,3.23,3.35,4.88,1.66,2.45,3.23,4.89,4.88,7.33,1.22,1.79,2.44,3.54,3.61,5.32h-2.22c-2.04-.04-4.14-.22-6.18-.13-2.8.13-5.62.43-8.41.66-3.53.27-7.08.38-10.62.34-1.27,0-2.53.18-3.79.27-1.53.09-3.01.17-4.53.22-1.79.09-3.53.13-5.32.18-.99.04-2.04,0-3.13,0h0c1.4-1.92,2.83-3.84,4.22-5.81.43-.56.78-1.18,1.21-1.74.13-.18.31-.27.53-.44l-.04-.08c.17-.22.34-.4.43-.57.23-.35.35-.74.53-1.13.04-.07.1-.13.17-.18.61.31.61-.34.83-.56.39-.44.76-.89,1.13-1.35.27-.34.53-.65.75-1.04.04-.13-.09-.35-.13-.53h-.13c.13-.09.26-.22.39-.3t.09-.04c.25-.38.51-.76.78-1.13.52-.7,1.09-1.4,1.69-2.01-.09.22-.17.42-.26.61.04,0,.04.04.09.04.52-.7,1.09-1.35,1.61-2.05-.04-.05-.09-.08-.13-.09-.22.22-.39.44-.61.66-.04-.05-.09-.08-.13-.09.44-.57.88-1.13,1.31-1.79.09.13.18.31.35.66.18-.43.35-.74.48-1.05-.13.13-.31.27-.44.4l-.13-.13.78-1.17c.83-1.18,1.66-2.4,2.48-3.58.31-.43.7-.78.96-1.22.83-1.66,2.14-2.97,3.14-4.49.22-.3.52-.56.78-.83.11-.13.21-.18.3-.16h0ZM799.32,665.16c-.26.18-.48.31-.74.48-.05.04-.09.04-.05.04.05.22.05.39.09.7.31-.44.52-.79.78-1.13l-.09-.1ZM836.07,683.13c.39,0,.61.13.83.48.39.65.79,1.31,1.22,1.96.04.09.13.22.13.34,0,.97,0,1.96.04,2.92.04,1.01.13,1.96.17,2.97,0,1-.09,2.04-.04,3.1.05,1.48.09,3.01.09,4.53h.01v.4s-.09.04-.17.04c-.18-.61-.35-1.27-.57-1.88-.39-1.29-.97-2.52-1.7-3.66-.88-1.23-1.66-2.49-2.53-3.75-.22-.31-.53-.57-.78-.83-.91-1.01-1.83-2.05-3.01-2.8-1.73-1.09-3.55-2.02-5.44-2.8-.53-.22-1.04-.48-1.53-.78h1.04l7.44-.13c1.61-.04,3.17-.04,4.78-.13M803.37,684.27c.32-.01.63,0,.96.04-.7.35-1.4.7-2,1.13-.78.53-1.52,1.23-2.31,1.8-.78.59-1.5,1.26-2.13,2-.83,1-1.74,1.87-2.62,2.83-.61.7-1.31,1.35-1.83,2.1-.74.96-1.4,2-2.1,3.09.23-4.14.48-8.24.31-12.43,2.05-.09,4.01-.22,6.02-.3,1.56-.09,3.17-.13,4.73-.22.32-.03.65-.05.97-.05h0ZM814.29,686.5c1.3.04,2.61.04,3.91.13.56.04,1.09.17,1.61.34.65.22,1.34.53,1.96.83.73.39,1.44.83,2.13,1.31,1.26.83,2.44,1.74,3.7,2.48,1.22.74,2.18,1.75,2.96,2.88.97,1.34,2.05,2.58,2.49,4.23l.65,2.88c.14.53.45,1.05.31,1.66-.22,1.09-.39,2.23-.56,3.32-.1.43-.14.87-.13,1.31.08,1.35-.44,2.53-.97,3.75-.17.39-.43.78-.65,1.22.1.08.22.14.34.18l.39-.78s.05,0,.09.04c-.22.61-.39,1.26-.61,1.88-.52,1.34-1.04,2.74-1.7,4.05-.35.74-.96,1.34-1.4,2.05-.43.61-.78,1.26-1.21,1.83-.39.48-.78.97-1.31,1.31-1.16.9-2.38,1.71-3.66,2.44-.78.48-1.7.74-2.57.96h.01c-1.4.34-2.83.74-4.27.91-1.22.18-2.48.13-3.75.13-1.12,0-2.24-.05-3.36-.13-1.26-.13-2.53-.27-3.74-.83-1.05-.48-2.14-.91-3.18-1.44-1.05-.52-2.1-1.13-2.88-2.1-.56-.7-1.35-1.26-2.04-1.87.13.53.45.98.91,1.26-.22.27-.53.13-.97-.57-.12.09-.25.13-.34.18.13-.31.26-.61.39-.87-.17-.35-.39-.74-.56-1.1-.35-.57-.69-1.15-1.01-1.74-.09-.13-.09-.26-.17-.39-.22-.25-.42-.51-.61-.78-.34-.52-.65-1.09-1.09-1.61,0,.13.04.27.04.44-.04,0-.09.04-.09.04l-.91-2.23s-.04,0-.09.04l.78,2.88s-.09.05-.13.05c-.13-.18-.26-.35-.35-.57-.09-.35-.35-.35-.56-.22-.13.08-.22.39-.18.52.32.74.65,1.48,1.01,2.23.08.25.19.5.31.74.04.09.17.17.17.3.18.35.31.7.53,1.01.39.52.83,1.05,1.22,1.57.39.52.74,1.09,1.08,1.61.05.09.18.09.22.13.23.65.97,1.13,1.49.87.13,1,1.22,1.34,1.66,2.31-.43-.18-.85-.37-1.26-.57-.04.04-.04.09-.09.17.52.27,1.05.53,1.52.83.44.27.88.53,1.27.83.52.48,1.13.74,1.87.91-.02-.06-.05-.12-.09-.18,1.22.57,2.48,1.18,3.44,1.66-4.53.09-9.36.18-14.37.27,0-.83-.04-1.61-.04-2.45,0-.35.09-.66.04-1.01-.13-2-.13-4.01-.39-5.97-.22-2.07-.29-4.16-.22-6.25.04-1.13-.05-2.31-.09-3.44,0-1.53,0-3.01.05-4.54,0-.22.09-.39.17-.61h.13c.04.09,0,.22.08.27.13.13.35.34.44.3.26-.18.65-.35.74-.61.2-.51.31-1.06.3-1.61,0-.39.18-.65.35-.91.09-.13.13-.27.22-.43-.17-.13-.34-.23-.56-.4.17-.48.13-1.05.78-1.31.09-.04.09-.27.13-.39.04-.35.08-.75.13-1.1.09.13.13.18.22.27.05-.09.08-.14.09-.14,0-.17-.04-.52,0-.52.52-.09.31-.66.56-.91.04-.05-.04-.18-.04-.27,0-.08,0-.22.04-.22.61-.13.52-.78.91-1.09.13-.09.17-.22.35-.43.34.6-.27.91-.31,1.34.74-.43.96-1.48.52-1.78.18-.14.34-.3.48-.48.48-.52,1-1,1.44-1.52.31-.39.48-.87.78-1.26.18-.22.53-.39.78-.53.78-.43,1.53-.91,2-1.65.09-.09.21-.18.34-.27.13-.08.4-.08.44-.22.04-.09-.09-.31-.18-.43.17-.09.35-.27.7-.44-.13.27-.17.43-.27.61l.22.22c.4-.31,1.01-.65,1.4-.91,0-.04-.22-.22-.22-.22-.27.13-.65.35-1.04.52.08-.13.08-.22.13-.27.61-.39,1.21-.77,1.87-1.09,1.52-.7,3.05-1.4,4.57-2.04.26-.13.61-.05.91-.05.13,0,.22,0,.35-.03.7-.22,1.4-.44,2.1-.61.31-.08.63-.13.96-.13M812.6,687.14l-1.26.57s-.22.39-.18.39c.22-.04.7-.39.96-.43.13,0,.31.04.44.08,0-.17,0-.35.04-.61M844.08,694.56c.43.58.91,1.1,1.22,1.66,1.01,1.83,2.31,3.41,3.53,5.06,1.05,1.44,2,3.01,2.97,4.49,1.17,1.79,2.31,3.57,3.48,5.36.87,1.35,1.78,2.7,2.7,4.02.83,1.17,1.69,2.31,2.56,3.44.74,1.01,1.52,2.01,2.26,3.01.87,1.23,1.75,2.44,2.62,3.62.43.61.91,1.22,1.4,1.83.27.35.65.61.91.83-.06,0-.12-.02-.17-.04.12.18.22.31.3.39.48.27.53.53.27.91h0c-.04.08-.13.17-.18.26-.04-.09-.04-.23-.09-.4-.27.7-.83.35-1.22.35-2.35.04-4.75.04-7.1.04s-4.57,0-6.83.04c-.74,0-1.53.17-2.27.22-1.79.08-3.57.14-5.36.18-.13,0-.26-.22-.48-.39l-.26.39c-.04-.09-.13-.17-.22-.3l-.13.34h-.13c-.09-.61-.26-1.18-.26-1.78,0-1.31.13-2.62.17-3.92.04-.61,0-1.18,0-1.75l.48.35c.08-.15.17-.29.26-.43,0,0-.09-.04-.18-.13.09-.04.18-.13.18-.18.04-.13.13-.27.13-.35,0-.31-.09-.56-.13-.82.04,0,.09,0,.13-.04l.26,1.31h.13c-.17-.3.39-.57-.09-.91-.04-.04.04-.31.04-.44-.13-.26-.22-.52-.35-.87.04-.04.18-.09.31-.13-.16-.09-.31-.16-.44-.22.43-.39.43-.61.04-1.05.09-.04.17-.04.17-.08,0-.4,0-.79-.09-1.18-.09-.44.13-.96-.52-1.22.04.13.09.24.17.35,0,0-.13.04-.26.13-.56-.52-.22-1.23-.35-2,.25.07.5.16.74.27-.09-.31-.31-.66-.44-1.05h-.18v-2.88s.3.04.48.09c0-.04.04-.09.04-.13l-.48-.56.09-.09c-.35-.43-.17-1.04-.17-1.18v-3.05c.43.44-.22,1.01.43,1.26v-.43h-.04c-.04-.66-.04-1.31-.09-1.97h-.09c-.04.09-.04.13-.09.22h-.09l.26-10.43ZM770.71,698.14c-.53.61-1.01,1.22-1.48,1.83.08.04.22.35.3.44.48-.66,1.13-1.48,1.61-2.1-.04-.04-.39-.13-.43-.17M767.79,700.28c-.27.39-.91,1.09-1.18,1.48.05.04.53-.17.57-.12.27-.39.53-.83.78-1.23-.08-.05-.14-.09-.17-.13M768.7,700.92c-.27.18-.52.4-.78.58.09.09.09.13.09.22-.34-.04-.48.14-.65.61-.05.13-.27.18-.48.35-.05.09-.09.31-.18.52l.04.04c-.06.06-.13.11-.22.13-.27.26-.57.48-.83.74-.05.13-.08.26-.09.39.3-.31.82-.87,1.21-1.22l.05.04c.16-.27.3-.53.48-.78.03.04.03.09.08.13-.13.35-.26.74-.39,1.09-.09.04-.22.13-.22.09-.18.13-.31.31-.48.43l-.78.53c-.43.39-.87.74-1.34,1.13-.31.48-.61.91-.97,1.49.53-.13.66.09.61.52.61.09.66-.39.83-.74.04-.09.09-.27.17-.31.39-.35.83-.65,1.26-1,.09-.09.09-.27.09-.39,0-.04-.22-.04-.35-.09.39-.43.97-1.17,1.34-1.65.23-.13.45-.31.45-.44-.04-.4.17-.56.44-.7-.2.94-.77,1.75-1.35,1.91.18.09.35.18.48.13s.22-.27.3-.4l1.18-1.7.39-.66-.17-.18c-.18.31-.35.58-.53.88l-.15-.08h.01c-.17-.15-.22-.28-.22-.32.05-.14.13-.28.22-.4.09,0,.22-.04.22-.04.18-.3.18-.52.35-.78-.04-.04-.09-.04-.13-.09h0ZM844.27,706.29h-.01v.03-.03ZM844.26,706.32c-.03.12-.05.24-.04.36,0-.12,0-.24.04-.36M844.22,707.11v.04s.05.04.09,0t-.09-.04h0ZM844.22,707.2c-.13.04-.27.04-.44.09.22.08.42.12.43.22v-.31ZM844.22,707.5h0s0,0,0,0ZM837.82,715.14c-.09,4.97.48,9.85,1.13,14.78l-14.98.52c1.86-.82,3.57-1.95,5.05-3.35.21-.22.45-.43.7-.61,1.83-1.13,3.17-2.7,4.4-4.45,1.39-2,2.31-4.27,3.44-6.41.08-.17.16-.33.26-.48M843.91,715.53l.18.43c.22-.04.31-.04.39-.08,0-.04,0-.09.04-.13-.13-.05-.31-.13-.61-.22h0ZM844.04,715.93l-.04.03s.09.05.09.05l-.04-.05v-.03ZM755.17,716.1c-.14.03-.27.09-.39.18.17.43.39.91.56,1.35.1-.08.22-.14.35-.18-.18-.43-.35-.91-.52-1.35M753.94,717.89c-.13.22-.26.43-.22.61,0,.13.22.27.35.39,0-.04.04-.09.09-.12-.09-.31-.13-.57-.22-.88M870.36,717.93c0,.09.04.22,0,.31v-.31ZM756.21,718.9c-.14.04-.27.09-.39.16.35.75.7,1.53,1.04,2.27.05,0,.39-.17.39-.17-.35-.75-.56-1.57-1.04-2.27M755.34,720.64c0,.17-.22.13-.22.31-.26,0-.48-.04-.7-.04-.04.04.13.3.18.35h.91c0-.22-.04-.39-.04-.61h-.13ZM795.41,722.34c.48.73.97,1.45,1.48,2.14l-.04.04c-.09-.04-.22-.09-.31-.18l-1.04-1.57c-.09-.12-.12-.28-.09-.43M844.01,724.7c-.04.52-.09.91-.09,1.31,0,.09.09.26.13.26.09.05.26-.04.35-.08.05-.05.08-.11.09-.17-.13-.09-.26-.13-.39-.23.83-.43,0-.65-.09-1.09M768.15,749.37c.47.53.95,1.05,1.43,1.62-.26-.13-.56-.22-.7-.39-.3-.35-.56-.74-.86-1.09l.13-.14ZM769.97,750.91c.13.22.22.48.34.74-.61-.04-.91-.31-.74-.66.13-.04.27-.04.39-.09M852.94,757.58c-.35.08-.61.13-.83.22-.09.18-.18.31-.27.48.05,0,.09.03.14.08.26-.27.56-.48.96-.78M850.71,758.79c-.48.31-1,.61-1.48.91.04.04.04.09.09.13.57-.15,1.11-.42,1.57-.78-.04-.09-.13-.18-.18-.27M829.37,767.07c-1.99.57-2.65.66-2.87.35,1.01-.13,1.92-.22,2.88-.35M826.42,767.47c.04.09.04.17.09.26-.27,0-.44.09-.66.13-.61.13-1.26.22-1.87.31-.22.04-.48.27-.56-.13-.09.04-.18.04-.27.09.22.65.75.13,1.18.39-.97.13-1.87.22-2.8.35v-.09c.27-.04.58-.09.83-.13v-.13c-.43-.06-.87-.08-1.31-.09-.13,0-.3.18-.43.22-.18.06-.38.09-.57.09-.74.04-1.48.04-2.18.09-.04,0-.13-.04-.18-.04v-.13c2.92-.39,5.79-.78,8.71-1.17h0ZM817.31,768.6v.13c-.81.14-1.62.23-2.44.27v-.13l2.44-.26Z"/>
  <path class="st0" d="M1074.74,447.93c0,6.97-5.67,12.69-12.63,12.69s-12.69-5.67-12.69-12.69h0c0-6.97,5.67-12.69,12.63-12.69s12.69,5.67,12.69,12.69h0ZM1089.75,387.36c-7.65,0-17.62,5.44-27.7,14.84-10.08-9.35-20.06-14.73-27.7-14.73-2.32,0-4.42.51-6.29,1.59-7.82,4.48-9.52,18.47-5.5,36.03-17.22,5.33-28.44,13.82-28.44,22.83s11.27,17.56,28.55,22.83c-3.97,17.62-2.21,31.67,5.61,36.15,1.81,1.08,3.91,1.53,6.23,1.53,7.65,0,17.62-5.44,27.7-14.84,10.08,9.35,20.06,14.73,27.7,14.73,2.32,0,4.42-.51,6.29-1.53,7.76-4.48,9.52-18.47,5.5-36.03,17.17-5.27,28.38-13.82,28.38-22.78s-11.27-17.56-28.55-22.83c3.97-17.62,2.21-31.67-5.61-36.15-1.81-1.02-3.91-1.59-6.18-1.59h0v-.06ZM1089.7,393.54h0c1.3,0,2.32.28,3.17.74,3.8,2.15,5.38,10.42,4.14,20.96-.28,2.61-.79,5.38-1.42,8.16-5.44-1.36-11.39-2.38-17.62-3-3.74-5.1-7.65-9.8-11.5-13.88,9.01-8.39,17.51-12.97,23.23-13.03h0v.06ZM1034.34,393.65c5.72,0,14.22,4.59,23.29,12.92-3.91,4.08-7.76,8.73-11.44,13.82-6.29.68-12.18,1.7-17.62,3.06-.62-2.78-1.13-5.44-1.42-8.05-1.3-10.59.28-18.81,4.02-21.02,1.08-.51,2.27-.74,3.17-.74h0ZM1062.05,410.93c2.55,2.66,5.16,5.61,7.71,8.84-2.49-.11-5.04-.17-7.65-.17s-5.16.06-7.71.17c2.49-3.23,5.04-6.23,7.65-8.89h0v.06ZM1062.11,425.83c4.19,0,8.39.17,12.46.51,2.32,3.29,4.53,6.8,6.69,10.54,2.1,3.63,4.02,7.31,5.78,11.05-1.76,3.68-3.68,7.42-5.72,11.05-2.15,3.74-4.36,7.31-6.69,10.59-4.14.34-8.33.57-12.52.57s-8.39-.17-12.46-.51c-2.32-3.29-4.53-6.8-6.69-10.54-2.1-3.63-4.02-7.31-5.78-11.05,1.7-3.74,3.68-7.42,5.72-11.05,2.15-3.74,4.36-7.31,6.69-10.59,4.14-.34,8.33-.57,12.52-.57h0ZM1041.48,427.25c-1.36,2.15-2.72,4.31-3.97,6.57-1.25,2.21-2.44,4.42-3.57,6.63-1.47-3.74-2.78-7.42-3.85-11.05,3.63-.85,7.48-1.59,11.39-2.21h0v.06ZM1082.62,427.25c3.91.57,7.71,1.3,11.39,2.21-1.02,3.57-2.32,7.25-3.74,10.93-1.13-2.21-2.32-4.42-3.63-6.63s-2.66-4.36-3.97-6.52h-.06ZM1100.01,431.1c2.72.85,5.33,1.81,7.82,2.83,9.8,4.19,16.15,9.69,16.15,14.05s-6.35,9.86-16.2,14.05c-2.38,1.02-4.99,1.93-7.65,2.78-1.59-5.44-3.68-11.1-6.23-16.88,2.55-5.78,4.59-11.39,6.18-16.77h0l-.06-.06ZM1024.09,431.1c1.59,5.44,3.63,11.1,6.23,16.88-2.55,5.78-4.59,11.39-6.18,16.77-2.72-.85-5.33-1.81-7.76-2.83-9.8-4.19-16.15-9.69-16.15-13.99s6.35-9.86,16.15-14.05c2.38-1.02,4.99-1.93,7.71-2.78ZM1090.26,455.35c1.47,3.74,2.78,7.42,3.85,11.05-3.63.91-7.48,1.64-11.44,2.21,1.36-2.15,2.72-4.31,4.02-6.57,1.3-2.21,2.44-4.48,3.63-6.69h-.06ZM1033.95,455.46c1.13,2.21,2.32,4.42,3.63,6.69,1.3,2.21,2.61,4.36,4.02,6.46-3.97-.57-7.71-1.3-11.39-2.21,1.02-3.57,2.32-7.25,3.74-10.93h0ZM1095.65,472.4c.62,2.78,1.13,5.5,1.42,8.05,1.3,10.59-.28,18.81-4.02,21.02-.85.51-1.93.74-3.17.74-5.72,0-14.22-4.59-23.29-12.92,3.91-4.08,7.76-8.73,11.44-13.82,6.29-.68,12.18-1.7,17.62-3.06h0ZM1028.62,472.46c5.44,1.3,11.39,2.38,17.62,3,3.74,5.16,7.65,9.8,11.5,13.88-9.06,8.39-17.51,13.03-23.29,13.03-1.25,0-2.32-.28-3.12-.74-3.8-2.15-5.38-10.37-4.14-20.96.28-2.61.79-5.33,1.42-8.16h0v-.06ZM1054.46,476.08c2.49.11,5.04.17,7.65.17s5.16-.06,7.71-.17c-2.49,3.23-5.1,6.18-7.65,8.89-2.55-2.66-5.16-5.61-7.71-8.89Z"/>
</svg>